<?xml version="1.0" standalone="no"?>
<!DOCTYPE svg PUBLIC "-//W3C//DTD SVG 1.1//EN" "http://www.w3.org/Graphics/SVG/1.1/DTD/svg11.dtd" >
<svg xmlns="http://www.w3.org/2000/svg" xmlns:xlink="http://www.w3.org/1999/xlink" version="1.1">
<metadata></metadata>
<defs>
<font id="quaestorsansbold" horiz-adv-x="1177" >
<font-face units-per-em="2048" ascent="1638" descent="-410" />
<missing-glyph horiz-adv-x="573" />
<glyph horiz-adv-x="0" />
<glyph unicode="&#xd;" horiz-adv-x="1024" />
<glyph unicode=" "  horiz-adv-x="573" />
<glyph unicode="&#x09;" horiz-adv-x="573" />
<glyph unicode="&#xa0;" horiz-adv-x="573" />
<glyph unicode="!" horiz-adv-x="563" d="M131 98q0 -63 42 -103t108 -40q61 0 106 40t45 103q0 59 -45 101.5t-106 42.5q-66 0 -108 -42.5t-42 -101.5zM147 1217l64 -836h158l61 836v217h-283v-217z" />
<glyph unicode="&#x22;" horiz-adv-x="845" d="M92 1434l49 -408h154l59 408h-262zM492 1434l51 -408h153l58 408h-262z" />
<glyph unicode="#" horiz-adv-x="1470" d="M78 444h293l-43 -444h180l45 444h311l-45 -444h180l43 444h291l19 129h-305l30 301h299l10 130h-296l43 432h-183l-43 -432h-307l37 432h-184l-35 -432h-295l-4 -130h289l-27 -301h-291zM567 573l27 301h299l-27 -301h-299z" />
<glyph unicode="$" horiz-adv-x="1189" d="M98 53l2 -16q37 -12 85 -22.5t101.5 -19.5t110 -14.5t107.5 -5.5h26v-176h152v189q88 12 160.5 38.5t125 73.5t84 117t38.5 168q4 84 -26 144.5t-82 108.5t-117.5 85t-133.5 72q-14 8 -23.5 13t-25.5 13v520q53 -4 92 -16t60 -29l47 -194h141l33 270l-4 17 q-70 25 -170.5 45t-198.5 24v156h-152v-166q-186 -27 -296.5 -118t-110.5 -251q0 -84 25.5 -143t69.5 -102t101.5 -76t120.5 -66q23 -10 41.5 -19t48.5 -28v-553q-51 -2 -107 9.5t-106 31.5l-45 191h-143zM365 1124q0 78 44 131.5t121 75.5v-434q-39 18 -69.5 38.5t-52 46.5 t-32.5 59.5t-11 82.5zM682 117v446q66 -41 106.5 -93t40.5 -136q0 -78 -40.5 -134.5t-106.5 -82.5z" />
<glyph unicode="%" horiz-adv-x="1642" d="M82 1102q0 -164 91 -247t253 -83q160 0 252 92t92 246q0 160 -90 243t-252 83q-164 0 -255 -90.5t-91 -243.5zM260 1102q0 119 41 185.5t127 66.5t125 -65.5t39 -182.5t-42 -183.5t-124 -66.5q-86 0 -126 66.5t-40 179.5zM313 -160h176l793 1673h-174zM872 305 q0 -164 91.5 -247t255.5 -83q160 0 251 92t91 246q0 160 -90.5 243t-249.5 83q-166 0 -257.5 -90t-91.5 -244zM1051 305q0 119 41 185.5t129 66.5q86 0 123.5 -65.5t37.5 -182.5t-42 -183.5t-121 -66.5q-88 0 -128 67t-40 179z" />
<glyph unicode="&#x26;" horiz-adv-x="1544" d="M82 350q0 -96 38 -166.5t105.5 -117t162.5 -69t208 -22.5q131 0 239.5 37t206.5 99l201 -207l223 129q-57 53 -121.5 113.5t-123.5 113.5q39 37 74.5 83t60 95t37 99.5t6.5 99.5q-14 66 -65.5 101.5t-117 47t-135 -1t-123.5 -45.5l25 -67q57 10 95 5t61.5 -22.5t34 -47 t10.5 -66.5q0 -47 -15.5 -93.5t-40.5 -93.5q-109 109 -205 204t-202 204q160 53 254 140t94 222q0 152 -106.5 229t-282.5 77q-100 0 -184 -24t-142.5 -67t-91.5 -105.5t-33 -139.5q0 -109 57.5 -194t145.5 -163q-170 -59 -260 -155.5t-90 -231.5zM338 408q0 92 37 154.5 t114 115.5l472 -481q-53 -41 -131 -75t-158 -34q-160 0 -247 84t-87 236zM463 1118q0 96 50 152.5t159 56.5q98 0 150 -56.5t52 -162.5q0 -100 -49 -170t-157 -123q-92 80 -148.5 154.5t-56.5 148.5z" />
<glyph unicode="'" horiz-adv-x="436" d="M86 1434l51 -408h154l59 408h-264z" />
<glyph unicode="(" horiz-adv-x="761" d="M133 633q0 -158 27.5 -291t84 -247.5t139.5 -214t194 -189.5l94 67q-80 74 -142.5 174.5t-105.5 216t-65.5 239.5t-22.5 245t22.5 244.5t65.5 239.5t105.5 216.5t142.5 173.5l-94 66q-111 -88 -194 -187.5t-139.5 -214t-84 -247.5t-27.5 -291z" />
<glyph unicode=")" horiz-adv-x="761" d="M90 -242q80 74 142.5 174.5t105.5 216t65.5 239.5t22.5 245t-22.5 244.5t-65.5 239.5t-105.5 216.5t-142.5 173.5l94 66q111 -88 194 -187.5t139 -214t84 -247.5t28 -291t-28 -291t-84 -247.5t-139 -214t-194 -189.5z" />
<glyph unicode="*" horiz-adv-x="942" d="M131 1243l275 -80l-195 -202l108 -87l146 222l129 -234l115 78l-172 217l272 60l-31 114l-256 -104l23 266h-150l23 -260l-240 125z" />
<glyph unicode="+" horiz-adv-x="1171" d="M96 623h402v-367h176v367h401v139h-401v368h-176v-368h-402v-139z" />
<glyph unicode="," horiz-adv-x="563" d="M131 98q0 -41 24.5 -72.5t65.5 -48.5l-61 -247l106 -15q31 59 66 127t65 127q16 33 25.5 64.5t9.5 64.5q0 53 -45 92t-106 39q-66 0 -108 -38.5t-42 -92.5z" />
<glyph unicode="-" horiz-adv-x="804" d="M92 510h621v133h-621v-133z" />
<glyph unicode="." horiz-adv-x="563" d="M131 98q0 -63 42 -103t108 -40q61 0 106 40t45 103q0 59 -45 101.5t-106 42.5q-66 0 -108 -42.5t-42 -101.5z" />
<glyph unicode="/" horiz-adv-x="761" d="M70 -301h176l446 1814h-176z" />
<glyph unicode="0" horiz-adv-x="1318" d="M98 516q0 -113 44 -211t121 -172t178.5 -116t217.5 -42q117 0 218.5 42t178.5 116t121 172t44 211t-44 211t-121 172t-178.5 116t-218.5 42t-218 -42t-178 -116t-121 -172t-44 -211zM326 516q0 86 25.5 163t70.5 136t106.5 94t130.5 35q70 0 131.5 -35t106.5 -94 t70.5 -136t25.5 -163t-25.5 -163t-70.5 -136t-106.5 -94t-131.5 -35t-131 35t-106 94t-70.5 136t-25.5 163z" />
<glyph unicode="1" horiz-adv-x="616" d="M72 883v55l358 119l53 -4l-8 -176v-877h-223v883h-180z" />
<glyph unicode="2" d="M117 0h909l4 23v129q-78 -4 -172 -11.5t-172 -11.5h-311q98 68 180 122t178 122h-2q127 78 210 178t83 211q0 158 -123 226.5t-344 68.5q-135 0 -237.5 -26.5t-149.5 -47.5l-4 -8l43 -160q98 70 175 99.5t136 29.5q123 0 192.5 -46t69.5 -132q0 -57 -17 -103.5t-49 -86 t-77 -77.5t-100 -79l-422 -311v-109z" />
<glyph unicode="3" horiz-adv-x="1122" d="M57 -274l2 -7q66 -53 178.5 -86.5t243.5 -33.5q106 0 198.5 26.5t160 79.5t105.5 133t38 187q0 158 -90 243.5t-236 108.5q123 45 201 129t78 221q0 86 -34 147.5t-93 102.5t-140 60.5t-175 19.5q-127 0 -227.5 -28t-160.5 -60l-4 -6l43 -154q127 84 211 109.5t125 25.5 q47 0 87 -12t70 -40t46 -72t16 -107q0 -80 -24.5 -136.5t-68.5 -92t-103.5 -52t-130.5 -16.5h-62v-111h92q63 2 125 -10t111 -44t79 -84t30 -132q0 -154 -72 -230.5t-182 -76.5q-41 0 -82 5t-87 22.5t-100.5 48t-126.5 81.5z" />
<glyph unicode="4" horiz-adv-x="1212" d="M57 0v102l680 955h219v-918h199v-139h-199v-322h-223v322h-676zM270 139h463l-4 656q-117 -166 -228.5 -327t-230.5 -329z" />
<glyph unicode="5" horiz-adv-x="1150" d="M119 -274l4 -7q66 -53 166 -86.5t235 -33.5q123 0 224.5 33.5t173 97t111.5 155.5t40 207q0 119 -41 204t-108.5 139t-154.5 80t-181 26q-70 0 -119 -9.5t-90 -19.5q6 92 13 183l14 182h593l5 22l2 143l-349 -10h-424l-55 -674l58 -22q86 39 160.5 57.5t129.5 18.5 q59 0 115.5 -17.5t99.5 -57.5t70 -101.5t27 -151.5q0 -88 -22.5 -157.5t-62.5 -119t-95.5 -75t-118.5 -25.5q-164 0 -377 182z" />
<glyph unicode="6" horiz-adv-x="1216" d="M98 629q0 -178 34 -302t98.5 -203t156.5 -114t209 -35q236 0 369 122t133 364q0 113 -33 193.5t-90 134t-137 79t-172 25.5q-31 0 -71 -4t-83 -15.5t-87 -28t-83 -40.5q6 98 25.5 190t58.5 163t100.5 114t149.5 43q49 0 120.5 -19.5t186.5 -95.5l43 150l-4 6 q-43 25 -136 49.5t-204 24.5q-287 0 -435.5 -203t-148.5 -598zM342 692q57 31 121.5 51.5t128.5 20.5q125 0 193.5 -71.5t68.5 -243.5q0 -182 -65.5 -271.5t-190.5 -89.5q-68 0 -116 34t-78.5 105.5t-46 187t-15.5 277.5z" />
<glyph unicode="7" horiz-adv-x="1062" d="M37 862q76 4 170 10.5t172 10.5h416l-545 -1256h237q31 92 64 190.5t63 192.5v-2q2 4 26 59.5t67 156t93 218t105.5 246.5t100.5 242v102h-965l-4 -24v-146z" />
<glyph unicode="8" horiz-adv-x="1200" d="M109 326q0 -174 129 -262.5t344 -88.5q248 0 379 107t131 287q0 78 -27 137t-73 107.5t-106.5 86t-127.5 68.5q74 35 128 70.5t90 77.5t52 90.5t16 107.5q0 152 -111.5 234t-316.5 82q-225 0 -345.5 -94.5t-120.5 -258.5q0 -70 23.5 -126t63 -101t91 -79t104.5 -60 q-63 -25 -121.5 -57.5t-103.5 -77t-71.5 -105.5t-26.5 -145zM319 344q0 51 18.5 93t49.5 79t73 69.5t89 65.5q20 -10 32.5 -14t30.5 -14q49 -23 93.5 -45.5t77 -54t52 -75t19.5 -106.5q0 -117 -65.5 -182.5t-198.5 -65.5q-135 0 -203 64.5t-68 185.5zM375 1104 q0 96 58.5 151.5t176.5 55.5q125 0 183.5 -55.5t58.5 -159.5q0 -45 -17.5 -82t-46 -70t-66.5 -61.5t-79 -57.5q-49 23 -96 51.5t-86 62.5t-62.5 75t-23.5 90z" />
<glyph unicode="9" horiz-adv-x="1216" d="M119 569q0 -111 32.5 -192.5t90 -134t137.5 -78t172 -25.5q31 0 71 4t83 15.5t87 28t82 40.5q-6 -98 -25.5 -190t-58 -165t-99 -116t-150.5 -43q-25 0 -61 7.5t-77 21.5t-85 37.5t-85 54.5l-43 -156l5 -6q43 -25 136 -49t204 -24q287 0 435 204.5t148 599.5 q0 178 -33.5 302t-98 202t-157 114t-208.5 36q-236 0 -369 -122t-133 -366zM362 584q0 182 66 271t190 89q68 0 117 -33.5t80 -106.5t45 -187.5t14 -276.5q-57 -31 -121.5 -51.5t-127.5 -20.5q-125 0 -194 72t-69 244z" />
<glyph unicode=":" horiz-adv-x="563" d="M131 98q0 -63 42 -104t108 -41q61 0 106 41t45 104q0 57 -45 100.5t-106 43.5q-66 0 -108 -43.5t-42 -100.5zM131 899q0 -63 42 -103t108 -40q61 0 106 40t45 103q0 59 -45 101t-106 42q-66 0 -108 -42t-42 -101z" />
<glyph unicode=";" horiz-adv-x="565" d="M131 899q0 -63 42 -103t108 -40q61 0 106 40t45 103q0 59 -45 101t-106 42q-66 0 -108 -42t-42 -101zM133 98q0 -41 24.5 -72.5t65.5 -48.5l-61 -247l106 -15q31 59 66 127t65 127q16 33 25.5 64.5t9.5 64.5q0 53 -45 92t-106 39q-66 0 -108 -38.5t-42 -92.5z" />
<glyph unicode="&#x3c;" horiz-adv-x="1153" d="M96 641l961 -448v172l-711 319l711 317v173l-961 -449v-84z" />
<glyph unicode="=" horiz-adv-x="1161" d="M96 434h969v144h-969v-144zM96 748h969v141h-969v-141z" />
<glyph unicode="&#x3e;" horiz-adv-x="1153" d="M96 193v172l711 319l-711 317v173l961 -449v-84z" />
<glyph unicode="?" horiz-adv-x="1155" d="M127 1372l4 17q37 14 86 26t101.5 21.5t104.5 15.5t97 6q109 0 198 -17.5t154.5 -59.5t103.5 -113.5t42 -182.5q0 -61 -22.5 -119.5t-60.5 -113.5t-86 -105.5t-101 -95.5q-25 -20 -48.5 -42.5t-51 -53.5t-60.5 -75t-74 -109l-125 47q14 41 46 93t71 106.5t79 104.5l68 85 q53 63 72.5 135t19.5 152q0 119 -50 188.5t-171 69.5q-59 0 -103 -17.5t-73 -38.5l-47 -194h-141zM397 98q0 -63 42 -103t108 -40q61 0 106 40t45 103q0 59 -45 101.5t-106 42.5q-66 0 -108 -42.5t-42 -101.5z" />
<glyph unicode="@" horiz-adv-x="1986" d="M145 594q8 197 80 351.5t193 260t282.5 161.5t350.5 56q182 0 327.5 -45t249 -131t158.5 -214t55 -294q0 -158 -43 -271.5t-114.5 -186t-164 -107.5t-190.5 -35q-74 0 -118 13.5t-65.5 38t-26.5 58.5t-3 73l6 145q-29 -43 -53.5 -78t-54 -71.5t-67.5 -78.5t-91 -98 q-94 -6 -154.5 30t-92 98.5t-39 142.5t4.5 161q35 238 152 362t297 124q53 0 100 -10.5t93 -32.5q18 10 36.5 21.5t34.5 21.5l92 -2l-24 -152q-12 -139 -26.5 -283.5t-24.5 -283.5q2 -45 24.5 -63.5t56.5 -18.5q47 0 90.5 27.5t78 84t55 142.5t20.5 203q0 283 -156.5 431 t-435.5 148q-172 0 -299 -51t-212 -146.5t-127 -232.5t-42 -307t57.5 -290t155 -194.5t222.5 -109.5t260 -35q68 0 149.5 9.5t175.5 31.5v-73q-231 -82 -444 -82q-164 0 -308.5 49t-251 147t-168 244.5t-61.5 341.5zM769 498q-1 -49 4 -96.5t17.5 -82t34.5 -34.5 q33 27 78 79t90 112.5t85 116.5t65 89l28 250q-29 10 -58.5 17t-59.5 7q-109 0 -182.5 -91t-96.5 -285q-4 -33 -5 -82z" />
<glyph unicode="A" horiz-adv-x="1437" d="M31 0h239l9 104l167 453h488l145 -457l17 -100h286l-53 111l-463 1347h-233l-535 -1347zM485 657l224 584l190 -584h-414z" />
<glyph unicode="B" horiz-adv-x="1294" d="M180 0h465q119 2 216 22.5t168 67.5t112 125t45 195q0 86 -26.5 147t-74 103t-114 68t-144.5 40q137 41 213 124t76 212q0 115 -48 180.5t-125 98t-172 42t-189 9.5h-402v-1434zM426 98v602q35 2 72 2h71q72 0 135.5 -14t110.5 -48t75 -89t30 -139q-6 -176 -97.5 -245 t-247.5 -69h-149zM426 799v536h119q70 0 126 -11t96 -40t62.5 -77t24.5 -122q0 -150 -85 -211t-237 -71q-20 -2 -50.5 -3t-55.5 -1z" />
<glyph unicode="C" horiz-adv-x="1341" d="M111 696q0 199 57 342.5t159.5 236.5t243 138t306.5 45q113 0 210 -21.5t181 -47.5l4 -15l-31 -270h-139l-47 192q-29 16 -81 31.5t-120 15.5q-111 0 -199 -38.5t-150.5 -114.5t-96 -189.5t-33.5 -265.5q0 -319 130 -474t384 -155q78 0 161 19.5t191 54.5l21 -71 q-84 -55 -202 -94.5t-267 -39.5q-143 0 -268.5 39t-217.5 125t-144 223.5t-52 333.5z" />
<glyph unicode="D" horiz-adv-x="1509" d="M162 0h448q176 0 321.5 45t249 135t161 229.5t57.5 325.5q0 199 -60.5 333t-166 215t-250 116t-314.5 35h-446v-1434zM410 109v1226h174q135 0 236.5 -33.5t169 -107.5t102.5 -190.5t41 -282.5q-6 -168 -43 -287t-109 -192q-71 -74 -179 -106q-93 -28 -214 -28 q-19 0 -39 1h-139z" />
<glyph unicode="E" horiz-adv-x="1214" d="M180 0h942l4 23v108l-342 -22h-360v598h250l244 -11v113l-244 -6h-250v522h328l346 -22v108l-4 23h-914v-1434z" />
<glyph unicode="F" horiz-adv-x="1153" d="M178 0h246v707h250l244 -11v113l-244 -6h-250v522h328l346 -22v108l-4 23h-916v-1434z" />
<glyph unicode="G" horiz-adv-x="1474" d="M111 696q0 199 61 342.5t166.5 236.5t249 138t309.5 45q113 0 220.5 -21.5t191.5 -47.5l4 -15l-31 -270h-139l-47 192q-29 16 -90.5 31.5t-131.5 15.5q-111 0 -201.5 -38.5t-157 -114.5t-103.5 -189.5t-37 -265.5q0 -160 39 -277.5t111.5 -195.5t175 -117t229.5 -39 q41 0 79 3.5t78 13.5v508h246v-656h-92l-67 64q-72 -31 -154 -47.5t-186 -16.5q-143 0 -274.5 39t-231 125t-158.5 223.5t-59 333.5z" />
<glyph unicode="H" horiz-adv-x="1531" d="M182 0h244v696h680v-696h244v1434h-244v-635h-680v635h-244v-1434z" />
<glyph unicode="I" horiz-adv-x="589" d="M172 0h246v1434h-246v-1434z" />
<glyph unicode="J" horiz-adv-x="589" d="M172 -401v1835h246v-1221l-105 -614h-141z" />
<glyph unicode="K" horiz-adv-x="1394" d="M180 0h246v1434h-246v-1434zM485 743l545 -743h307l2 10l-602 797l492 508l137 102v17h-309l-43 -117z" />
<glyph unicode="L" horiz-adv-x="1081" d="M178 0h875l4 23v108l-346 -22h-287v1325h-246v-1434z" />
<glyph unicode="M" horiz-adv-x="1880" d="M184 0h142v1184l544 -1196h107l473 1208v-1196h246v1434h-287l-416 -1035l-483 1035h-326v-1434z" />
<glyph unicode="N" horiz-adv-x="1552" d="M182 0h144v1237l870 -1249h174v1446h-143v-1100l-768 1100h-277v-1434z" />
<glyph unicode="O" horiz-adv-x="1613" d="M113 705q0 -360 179 -545t505 -185q338 0 521 190.5t183 557.5q0 180 -47 317.5t-136 230.5t-217 140t-288 47t-290 -48t-221 -142t-140 -235.5t-49 -327.5zM379 723q0 322 112.5 472.5t317.5 150.5q203 0 314.5 -154.5t111.5 -480.5q0 -322 -111.5 -472.5t-318.5 -150.5 q-205 0 -315.5 154.5t-110.5 480.5z" />
<glyph unicode="P" horiz-adv-x="1208" d="M180 0v1434h471q16 0 58.5 -3.5t98.5 -15.5t116.5 -35.5t110.5 -67.5t83 -109.5t33 -160.5q0 -102 -37 -180t-100.5 -131t-149.5 -80.5t-182 -27.5q-66 0 -113 8t-69 18v62h51q164 0 251 74.5t87 256.5q0 86 -19.5 143.5t-59.5 91.5t-102 47q-54 11 -128 11h-23h-133 v-1335h-244z" />
<glyph unicode="Q" horiz-adv-x="1609" d="M113 705q0 -319 150.5 -500.5t412.5 -220.5q12 -74 61 -133.5t122 -103.5t165 -71.5t190 -33.5q20 -1 41 -1q31 0 65 2q58 3 113.5 12t104.5 23.5t82 32.5v74q-63 -12 -131 -17q-37 -4 -75 -4q-30 0 -60 2q-68 5 -131.5 17t-118.5 33q-57 20 -112.5 61t-86.5 103 q285 33 441.5 221t156.5 522q0 180 -47 317.5t-136 230.5t-217 140t-288 47t-290 -48t-222 -142t-141 -235.5t-49 -327.5zM381 723q0 322 111.5 472.5t318.5 150.5q203 0 313.5 -154.5t110.5 -480.5q0 -322 -110.5 -472.5t-317.5 -150.5t-316.5 154.5t-109.5 480.5z" />
<glyph unicode="R" horiz-adv-x="1337" d="M180 0h246v672h111l436 -672h256l20 25l-461 677q168 37 264.5 133.5t96.5 249.5q0 111 -48 179.5t-124 106.5t-169 50.5t-185 12.5h-443v-1434zM426 762v573h135q72 0 130.5 -11t100.5 -40t65.5 -79t23.5 -130q0 -172 -84 -242.5t-242 -70.5h-129z" />
<glyph unicode="S" horiz-adv-x="1189" d="M98 51l4 -14q78 -23 183.5 -42.5t216.5 -19.5q123 0 227.5 18.5t182 65.5t123.5 126t55 198q1 12 1 24q0 81 -37 139q-42 68 -107.5 119.5t-145.5 91.5t-152 79q-78 39 -133 69.5t-90 61t-50.5 68.5t-15.5 91q0 104 75 163t202 59q70 0 121 -15.5t92 -44.5l33 -184h139 l33 270l-4 15q-37 14 -85 26t-100.5 21.5t-104.5 15.5t-99 6q-121 0 -219.5 -24.5t-169 -71.5t-109.5 -119t-39 -164q0 -82 25.5 -140t72.5 -104.5t117 -85t158 -83.5q57 -31 116.5 -62t108.5 -67.5t80 -86t31 -116.5q0 -119 -84 -182.5t-230 -63.5q-43 0 -100.5 11.5 t-104.5 29.5l-47 193h-137z" />
<glyph unicode="T" horiz-adv-x="1282" d="M29 1409l4 25h1216l4 -23l-8 -106l-336 10h-145v-1315h-246v1315h-145l-336 -10z" />
<glyph unicode="U" horiz-adv-x="1464" d="M141 498q0 -143 42 -242.5t119 -162t184.5 -90.5t238.5 -28q154 0 266.5 29t186 93.5t109.5 167t36 251.5v918h-190v-951q0 -205 -87.5 -300t-281.5 -95q-186 0 -282.5 92t-96.5 252v1002h-244v-936z" />
<glyph unicode="V" horiz-adv-x="1386" d="M53 1434l60 -111l462 -1335h205l516 1335l58 111h-199l-22 -103l-408 -1079l-365 1081l-18 101h-289z" />
<glyph unicode="W" horiz-adv-x="2246" d="M61 1434l60 -111l444 -1335h205l367 1030l352 -1030h205l454 1337l58 109h-215l-6 -105l-351 -1061l-385 1178h-139l-399 -1182l-342 1069l-15 101h-293z" />
<glyph unicode="X" horiz-adv-x="1511" d="M35 0h256l45 98l373 525l362 -527l23 -96h383l-131 115l-457 655l395 551l111 113h-230l-47 -99l-325 -454l-312 456l-26 97h-383l129 -115l413 -588l-446 -618z" />
<glyph unicode="Y" horiz-adv-x="1347" d="M49 1434l84 -113l420 -746v-575h246v596l430 725l90 113h-232l-24 -97l-346 -583l-330 581l-29 99h-309z" />
<glyph unicode="Z" horiz-adv-x="1261" d="M59 0h1129l4 23v118l-346 -22h-479l835 1220v95h-1083l-4 -23v-108l346 22h442l-844 -1231v-94z" />
<glyph unicode="[" horiz-adv-x="714" d="M133 -301v1874h449v-111h-232v-1650h232v-113h-449z" />
<glyph unicode="\" horiz-adv-x="761" d="M70 1513h176l446 -1814h-176z" />
<glyph unicode="]" horiz-adv-x="714" d="M133 -188v-113h449v1874h-449v-111h232v-1650h-232z" />
<glyph unicode="^" horiz-adv-x="1171" d="M86 842h199l301 448l301 -448h198l-442 633h-115z" />
<glyph unicode="_" horiz-adv-x="1060" d="M-8 -211v-111h1077v111h-1077z" />
<glyph unicode="`" horiz-adv-x="512" d="M43 1415l150 127l274 -342l-100 -55z" />
<glyph unicode="a" horiz-adv-x="1067" d="M76 258q0 -131 91 -207t243 -76q90 0 169.5 24t145.5 62l-6 -92l223 33l19 21q-2 43 -4.5 87t-4.5 87v514q0 82 -24.5 146.5t-77.5 108.5t-136 67.5t-202 23.5q-168 0 -344 -49l-4 -19l33 -268h139q10 43 22.5 95t22.5 97q35 16 65.5 23.5t65.5 7.5q31 0 67.5 -9 t69.5 -36t55.5 -74t22.5 -123v-124h-18t-10.5 1t-10.5 1h-16q-111 0 -217.5 -11.5t-190.5 -46.5t-136 -97.5t-52 -166.5zM319 283q0 55 28 93t75 61.5t109.5 33.5t132.5 10h30q16 0 33 -2v-307q-47 -25 -106.5 -45.5t-112.5 -20.5q-88 0 -138.5 43.5t-50.5 133.5z" />
<glyph unicode="b" horiz-adv-x="1191" d="M139 1473l19 18l211 33v-518q63 23 142 37t163 14q96 0 175 -31t136 -93.5t88 -157.5t31 -224q0 -143 -37 -252t-104.5 -180.5t-161.5 -107.5t-209 -36q-117 0 -234.5 25t-199.5 51l-11 23v1222q-2 45 -4 88t-4 89zM369 123q84 -35 170 -35q76 0 136 24.5t102 78 t64.5 139.5t22.5 209q0 113 -20.5 188.5t-60.5 120.5t-95 63.5t-127 18.5q-35 0 -87 -5t-105 -16v-786z" />
<glyph unicode="c" horiz-adv-x="1044" d="M86 512q0 147 44 250.5t118 169t172 95.5t209 30q82 0 169 -12.5t175 -36.5l4 -19l-33 -268h-139l-45 192q-29 12 -64.5 21.5t-66.5 9.5q-55 0 -108.5 -25.5t-96.5 -75.5t-69.5 -126t-26.5 -176q0 -111 19.5 -190t55 -130t86 -77.5t109.5 -34.5q41 -6 82 -6q62 0 122 14 q102 24 206 71v-96q-27 -16 -67 -36.5t-91 -38t-113.5 -30t-134.5 -12.5q-100 0 -194.5 31t-165 95.5t-113.5 166t-43 244.5z" />
<glyph unicode="d" horiz-adv-x="1196" d="M88 496q0 -264 115.5 -392.5t318.5 -128.5q90 0 163 24t138 62l-4 -92l219 33l19 21l-8 174v1327l-215 -33l-17 -18q2 -45 4 -88.5t4 -88.5v-282q-57 23 -116.5 33t-118.5 10q-104 0 -195.5 -35t-160 -105.5t-107.5 -175t-39 -245.5zM330 514q0 117 22.5 199t65.5 133 t104.5 74.5t136.5 23.5q43 0 88.5 -10t77.5 -21v-741q-61 -28 -135 -48q-47 -12 -92 -13q-25 0 -49 4q-45 10 -85 34.5t-69.5 72.5t-47 120t-17.5 172z" />
<glyph unicode="e" horiz-adv-x="1095" d="M88 512q0 -135 37 -236.5t104.5 -168t162.5 -99.5t212 -33q72 0 134.5 12.5t115.5 30t95 38t69 36.5v94q-102 -38 -213 -66q-66 -16 -128 -17q-43 0 -85 8q-137 27 -199.5 140.5t-66.5 280.5h678q8 35 10 71t2 65q0 82 -26.5 153.5t-79 123.5t-129 82t-179.5 30 q-240 0 -377 -137.5t-137 -407.5zM328 631q2 160 68.5 242.5t183.5 82.5q115 0 165 -87t52 -224l-119 -7t-117 -7h-233z" />
<glyph unicode="f" horiz-adv-x="759" d="M35 924v77l180 27v201q0 72 25.5 126t71.5 89t109.5 52t139.5 17q45 0 104.5 -7t120.5 -27v-74h-196q-74 0 -112 -33t-38 -106v-234h236v-108h-238v-924h-223v924h-180z" />
<glyph unicode="g" horiz-adv-x="1146" d="M57 -178q0 -127 115 -188.5t336 -61.5q274 0 431 94t157 279q0 90 -45 138t-116 70.5t-159 26.5t-172 4h-67q-39 0 -78 7.5t-65.5 23.5t-24.5 47q2 29 21.5 54.5t45.5 43.5q23 -4 47.5 -5t42.5 -1q205 0 318.5 88t113.5 258q0 53 -15 109.5t-50 105.5l231 -10l6 168 l-49 2q-80 -12 -162.5 -27.5t-162.5 -31.5q-45 16 -105.5 28.5t-120.5 12.5q-205 0 -320.5 -95.5t-115.5 -265.5q0 -94 58.5 -172t158.5 -127q-76 -51 -116.5 -104t-40.5 -105q0 -35 20.5 -64.5t52.5 -53.5q-98 -76 -134 -135.5t-36 -112.5zM281 -135q0 16 7 65.5t46 98.5 q23 -4 47 -4h41h278q80 0 123 -36t43 -102q0 -104 -84 -159.5t-239 -55.5q-133 0 -197.5 50.5t-64.5 142.5zM346 705q0 139 46 198.5t138 59.5t137.5 -60.5t45.5 -202.5q0 -139 -47.5 -195t-133.5 -56q-92 0 -138 57.5t-48 198.5z" />
<glyph unicode="h" horiz-adv-x="1163" d="M137 1473l19 18l213 33l6 -549q51 25 96 41t87 25.5t84 12.5t89 3q152 0 237 -80t89 -215v-762h-223v608q0 59 -3.5 113.5t-21.5 95.5t-59 65.5t-119 24.5q-53 0 -112.5 -7t-149.5 -28v-872h-224v1296q-2 45 -4 88t-4 89z" />
<glyph unicode="i" horiz-adv-x="518" d="M115 1389q0 -57 40 -93t99 -36t99 35.5t40 93.5q0 57 -40 95t-99 38t-99 -38t-40 -95zM131 1012l19 18l212 33v-1063h-223v836q-2 45 -4 88t-4 88z" />
<glyph unicode="j" horiz-adv-x="518" d="M115 1389q0 -57 40 -93t99 -36t99 35.5t40 93.5q0 57 -40 95t-99 38t-99 -38t-40 -95zM131 1012l19 18l212 33v-981l-86 -463h-137v1217q-2 45 -4 88t-4 88z" />
<glyph unicode="k" horiz-adv-x="1122" d="M139 1473l17 18l213 33v-930l362 342l94 127l179 -37v-18l-107 -90l-334 -314l522 -579l-2 -25h-258l-456 520v-520h-222v1296z" />
<glyph unicode="l" horiz-adv-x="493" d="M131 1473l19 18l212 33v-1524h-223v1296q-2 45 -4 88t-4 89z" />
<glyph unicode="m" horiz-adv-x="1781" d="M143 1010l9 -174v-836h223v872q47 12 79.5 18.5t57.5 10.5t45.5 5t38.5 1q78 0 119 -24.5t59.5 -65.5t21.5 -95t3 -114v-608h223v852q72 29 127 42t94 13q78 0 119 -24.5t59.5 -65.5t21.5 -95t3 -114v-608h223v762q-4 135 -89 215t-237 80q-80 0 -164.5 -25.5 t-211.5 -93.5q-37 51 -108 85t-163 34q-39 0 -74.5 -3t-72.5 -12.5t-78 -26t-90 -40.5l2 88l-221 -33z" />
<glyph unicode="n" horiz-adv-x="1163" d="M137 1010l8 -174v-836h224v872q90 20 149.5 27.5t112.5 7.5q78 0 119 -24.5t59 -65.5t21.5 -95t3.5 -114v-608h223v762q-4 135 -89 215t-237 80q-47 0 -89 -3t-84 -12.5t-87 -26t-96 -40.5l2 88l-221 -33z" />
<glyph unicode="o" d="M88 520q0 -268 126 -406.5t368 -138.5q248 0 378 135.5t130 409.5q0 264 -125 400.5t-367 136.5q-248 0 -379 -134.5t-131 -402.5zM336 520q0 231 65.5 333.5t188.5 102.5t187.5 -102.5t64.5 -333.5q0 -233 -65.5 -336.5t-190.5 -103.5q-121 0 -185.5 103.5t-64.5 336.5z " />
<glyph unicode="p" horiz-adv-x="1196" d="M139 1010l19 20l219 33l-4 -92q66 39 138.5 62.5t162.5 23.5q203 0 318.5 -128t115.5 -392q0 -141 -39 -246t-107.5 -175.5t-159.5 -105.5t-196 -35q-59 0 -118.5 10.5t-116.5 32.5v-409h-224v1227q-2 43 -4 87t-4 87zM371 119q33 -10 78 -20.5t88 -10.5q78 0 138 23.5 t103 75t65.5 133t22.5 198.5q0 102 -17.5 173t-47 119t-69.5 73.5t-85 34.5q-23 3 -47 3q-46 0 -94 -13q-74 -19 -135 -48v-741z" />
<glyph unicode="q" horiz-adv-x="1183" d="M88 481q0 -129 31 -224t88 -157.5t136 -93.5t173 -31q86 0 165 14.5t140 37.5v-418h223v1349l-10 23q-84 27 -200.5 51.5t-233.5 24.5q-115 0 -209 -36t-161.5 -107.5t-104.5 -179t-37 -253.5zM328 494q0 123 22.5 208.5t64.5 139t102.5 78t135.5 24.5q86 0 168 -35v-786 q-51 -10 -103 -15.5t-87 -5.5q-70 0 -126 18.5t-96 63.5t-60.5 121t-20.5 189z" />
<glyph unicode="r" horiz-adv-x="856" d="M135 1010l19 20l221 33l-2 -84q39 18 85 32.5t94 25t95 15.5t88 5h84l4 -25l-32 -266h-138l-32 141q-51 -2 -113 -9t-141 -26v-872h-224v836q-2 43 -4 87t-4 87z" />
<glyph unicode="s" horiz-adv-x="970" d="M96 63l4 -12q25 -10 66 -23.5t90 -24.5t101.5 -19.5t97.5 -8.5q84 0 160.5 19.5t134 59.5t91 98.5t33.5 138.5q0 55 -23.5 101t-63 83t-94 66.5t-115.5 52.5q-39 14 -83 34.5t-81 48.5t-60.5 61.5t-23.5 72.5q0 70 44 106.5t115 36.5q51 0 88 -14t50 -27l45 -192h139 l33 268l-4 15q-25 10 -63 20t-79 17.5t-85 11.5t-81 4q-90 0 -165.5 -16.5t-131 -52.5t-87 -90t-31.5 -128q0 -61 26.5 -108.5t69.5 -84t99.5 -66.5t115.5 -56q39 -16 79 -36t71.5 -44.5t52 -55t20.5 -73.5q0 -72 -44 -115t-115 -43q-53 0 -104.5 18.5t-74.5 34.5l-47 193 h-139z" />
<glyph unicode="t" horiz-adv-x="759" d="M53 924h144v-666q0 -61 9 -113.5t36.5 -89.5t77 -58.5t129.5 -21.5q72 0 142.5 21.5t125.5 56.5v70q-47 -10 -92 -18.5t-70 -8.5q-43 0 -69.5 12.5t-41 36t-18.5 58.5t-4 78v643h293v108h-293v260h-133q-12 -59 -26.5 -107t-39 -86t-64.5 -63.5t-106 -42.5v-69z" />
<glyph unicode="u" horiz-adv-x="1171" d="M109 1010l16 20l213 33v-639q0 -59 3 -113.5t21.5 -95.5t59.5 -65.5t119 -24.5q53 0 112.5 7t149.5 26v678q-2 43 -4 87t-4 87l18 20l213 33v-866q2 -43 3 -87t3 -87l-16 -21l-223 -33l4 86q-51 -25 -96.5 -40t-87.5 -24t-84 -12.5t-89 -3.5q-152 0 -236.5 80t-88.5 215 v566q-2 43 -4 87t-2 87z" />
<glyph unicode="v" horiz-adv-x="1087" d="M10 1032l60 -110l360 -934h197l372 934l58 110h-195l-22 -100l-269 -694l-254 694l-14 100h-293z" />
<glyph unicode="w" horiz-adv-x="1722" d="M16 1032h287l23 -102l215 -686l288 800h160l268 -792l213 680l21 100h195l-60 -110l-311 -934h-197l-264 708l-260 -708h-199l-321 936z" />
<glyph unicode="x" horiz-adv-x="1146" d="M14 0l109 115l313 415l-295 390l-110 112h340l39 -100l194 -283l211 287l45 96h230l-113 -112l-287 -373l324 -434l110 -113h-317l-49 98l-238 322l-237 -324l-47 -96h-222z" />
<glyph unicode="y" horiz-adv-x="1148" d="M6 1032l86 -112l408 -885l-154 -477h219l117 526l358 838l82 110h-219l-22 -100l-265 -625l-280 627l-19 98h-311z" />
<glyph unicode="z" horiz-adv-x="1044" d="M76 0v84l610 840h-223l-342 -23v109l4 22h823v-84l-600 -839h250l346 22v-108l-4 -23h-864z" />
<glyph unicode="{" horiz-adv-x="765" d="M53 633q51 -14 88 -33.5t54 -38.5q29 -35 32.5 -99.5t3.5 -131.5v-221q0 -102 30 -172t90.5 -114t150.5 -64.5t211 -24.5v73q-141 14 -201.5 86t-58.5 185v213q2 63 -3.5 120.5t-26 105.5t-59 83t-104.5 53q68 18 107 54t58 84.5t24.5 106.5t3.5 122v211q-2 115 58 185.5 t202 84.5v74q-121 -4 -211 -24.5t-150.5 -63.5t-90.5 -112.5t-30 -172.5v-223q0 -68 -4 -132.5t-32 -96.5q-16 -20 -53.5 -40t-88.5 -34v-43z" />
<glyph unicode="|" horiz-adv-x="512" d="M170 -301h172v1814h-172v-1814z" />
<glyph unicode="}" horiz-adv-x="765" d="M53 -193q141 14 201.5 86t58.5 185v213q-2 63 3.5 121.5t24.5 106.5t58 84t107 54q-66 18 -105 53t-59 82.5t-25.5 105.5t-3.5 122v211q2 115 -58 185.5t-202 84.5v74q121 -4 211 -24.5t150.5 -63.5t90.5 -112.5t30 -172.5v-223q0 -68 4 -132.5t32 -96.5q16 -20 53.5 -40 t88.5 -34v-43q-106 -29 -144 -72q-29 -33 -31.5 -98.5t-2.5 -132.5v-221q0 -102 -30 -172t-90.5 -114t-150.5 -64.5t-211 -24.5v73z" />
<glyph unicode="~" horiz-adv-x="1107" d="M94 475l101 -49q35 41 77.5 72.5t98.5 33.5q35 -2 81 -17t91 -32q49 -18 99 -33.5t110 -15.5q45 0 85 17.5t72.5 45t59 61.5t45.5 67l-96 61q-37 -41 -77 -74.5t-81 -33.5t-88 14t-97 33q-51 18 -101 32.5t-107 14.5q-49 0 -91.5 -17.5t-76 -45t-60 -63.5t-45.5 -71z" />
<glyph unicode="&#xa1;" horiz-adv-x="563" d="M131 928q0 57 42 93t108 36q61 0 106 -36t45 -93q0 -53 -45 -93t-106 -40q-66 0 -108 40t-42 93zM147 -193l64 838h158l61 -838v-215h-283v215z" />
<glyph unicode="&#xa2;" horiz-adv-x="1044" d="M86 512q0 147 43 251.5t118 169t173 94.5t209 30h22q8 0 33 -2l94 379h119l-94 -390q41 -6 82 -14t88 -22l4 -19l-31 -270h-143l-33 207l-197 -809q25 -4 51.5 -7.5t49.5 -3.5q78 0 165 24t171 63v-101q-27 -16 -67 -36.5t-92 -38t-114.5 -30t-134.5 -12.5h-31 q-18 0 -32 2l-86 -358h-119l94 381q-74 23 -136.5 62.5t-108.5 103t-71.5 149.5t-25.5 197zM330 541q0 -156 36.5 -247t100.5 -136l192 782h-30q-53 0 -106.5 -24.5t-96.5 -74.5t-69.5 -125t-26.5 -175z" />
<glyph unicode="&#xa3;" horiz-adv-x="1234" d="M78 0h1075l4 25l10 288h-143l-45 -190l-166 -10h-508q102 84 145.5 180t51.5 229q4 49 6 99.5t2 91.5h315v110h-315v248q0 139 58.5 207t189.5 68q57 0 96 -16.5t61 -33.5l46 -194h143l31 270l-5 14q-53 27 -150 49.5t-208 22.5q-252 0 -372.5 -114.5t-120.5 -329.5v-191 h-191v-110h191q0 -78 -3.5 -148.5t-11.5 -130.5q-10 -78 -23.5 -132t-31.5 -101q-6 -12 -14.5 -28.5t-22.5 -33t-36.5 -31t-57.5 -24.5v-84z" />
<glyph unicode="&#xa5;" horiz-adv-x="1347" d="M49 1434q16 -23 42 -57t42 -56l-2 2q98 -174 198.5 -351t198.5 -351h-276v-129h301v-492h246v492h301v129h-289l418 700h-4l94 113h-232q-4 -18 -11 -46t-13 -51q-86 -145 -173 -290.5t-173 -292.5q-45 80 -85 150.5t-80 140t-80 140t-85 150.5l2 -2l-31 101h-309z" />
<glyph unicode="&#xa6;" horiz-adv-x="446" d="M129 -301h186v741h-186v-741zM129 834h188v739h-188v-739z" />
<glyph unicode="&#xa7;" horiz-adv-x="1120" d="M137 561q4 -76 27.5 -130t62.5 -94t92.5 -72t114.5 -62q129 -66 195.5 -121t66.5 -121q0 -70 -44 -109.5t-115 -39.5q-29 0 -56.5 9t-44.5 25l-45 195h-143l-31 -270l4 -19q49 -16 132 -31.5t161 -15.5q84 0 153.5 19.5t121 57.5t80 95t28.5 133q0 51 -15.5 91t-42 74 t-61.5 61.5t-73 54.5q135 51 206.5 133t71.5 197q-2 76 -26.5 130t-63.5 94t-92 71.5t-115 62.5q-129 66 -195.5 120t-66.5 120q0 70 44 110.5t116 40.5q29 0 56.5 -9t43.5 -26l45 -194h143l31 270l-4 19q-49 16 -132 31.5t-161 15.5q-82 0 -152.5 -19.5t-121.5 -57.5 t-80 -95.5t-29 -133.5q0 -47 17.5 -88t45 -75.5t62.5 -63.5t68 -53q-135 -51 -207 -133t-72 -197zM352 606q0 72 39 132.5t107 113.5q47 -20 95 -46t87 -58.5t63.5 -75.5t24.5 -97q0 -74 -38 -133t-107 -114q-47 20 -95.5 45.5t-87.5 58.5t-63.5 76t-24.5 98z" />
<glyph unicode="&#xa8;" horiz-adv-x="757" d="M20 1329q0 -45 37 -74.5t95 -29.5q59 0 97 29.5t38 74.5q0 47 -38 78t-95 31q-59 0 -96.5 -31t-37.5 -78zM469 1329q0 -45 37 -74.5t96 -29.5t96 29.5t37 74.5q0 47 -36.5 78t-94.5 31q-59 0 -97 -31t-38 -78z" />
<glyph unicode="&#xa9;" horiz-adv-x="1806" d="M104 756q0 -162 62.5 -303.5t171 -248t254 -168t311.5 -61.5t311.5 61.5t254 168t171 248t62.5 303.5q0 160 -62.5 302t-171 247.5t-254 167t-311.5 61.5t-311.5 -61.5t-254 -167t-171 -247.5t-62.5 -302zM250 756q0 139 51 261t140 213t208 144t254 53t254 -53t208 -144 t140 -213t51 -261t-51 -262t-140 -214.5t-208 -144.5t-254 -53t-254 53t-208 144.5t-140 214.5t-51 262zM510 717q0 121 35 209t97.5 145t147 84t183.5 27q68 0 127 -12.5t108 -28.5l2 -11l-18 -161h-86l-29 116q-25 10 -54.5 17.5t-64.5 7.5q-133 0 -208.5 -89t-75.5 -265 q0 -197 76.5 -290t228.5 -93q43 0 94 11t119 36l12 -49q-49 -31 -120.5 -54.5t-161.5 -23.5q-86 0 -161 23.5t-131.5 73.5t-88 131t-31.5 196z" />
<glyph unicode="&#xaa;" horiz-adv-x="905" d="M94 897q0 -90 64.5 -141t171.5 -51q53 0 103 13t91 36l-2 -45l23 -4l266 38v41l-111 41v373q0 111 -68.5 173.5t-232.5 62.5q-57 0 -116.5 -8.5t-124.5 -26.5l-4 -17l22 -182h119l29 129q38 17 75 17q18 0 41 -6.5t41.5 -23t31.5 -46t13 -76.5v-74h-28q-74 0 -146.5 -9 t-130 -33.5t-92.5 -67.5t-35 -113zM285 913q0 68 60.5 95.5t143.5 27.5h37v-190q-29 -16 -63.5 -28.5t-65.5 -12.5q-113 0 -112 108z" />
<glyph unicode="&#xab;" horiz-adv-x="1075" d="M96 565l328 414l162 -31l-264 -383q63 -92 132.5 -192.5t131.5 -192.5l-162 -30zM496 565l329 414l162 -31l-264 -383q63 -92 133 -192.5t131 -192.5l-162 -30z" />
<glyph unicode="&#xac;" horiz-adv-x="1732" d="M35 924h180v-924h223v924h236l409 -889l-153 -477h219l117 526l26 62q27 61 67 154t87 201.5t87 202t67 156.5l26 62l-4 -2l84 112h-219l-23 -102l-262 -623l-280 627l-19 98h-463v234q0 74 39 106.5t113 32.5h196v74q-61 20 -121.5 27t-105.5 7q-76 0 -139.5 -17 t-109.5 -52t-71.5 -89.5t-25.5 -125.5v-201l-180 -27v-77z" />
<glyph unicode="&#xad;" horiz-adv-x="804" d="M92 510h621v133h-621v-133z" />
<glyph unicode="&#xae;" horiz-adv-x="1806" d="M104 756q0 -162 62.5 -303.5t171 -248t254 -168t311.5 -61.5t311.5 61.5t254 168t171 248t62.5 303.5q0 160 -62.5 302t-171 247.5t-254 167t-311.5 61.5t-311.5 -61.5t-254 -167t-171 -247.5t-62.5 -302zM250 756q0 139 51 261t140 213t208 144t254 53t254 -53t208 -144 t140 -213t51 -261t-51 -262t-140 -214.5t-208 -144.5t-254 -53t-254 53t-208 144.5t-140 214.5t-51 262zM532 330h342v51l-96 18v334h64l264 -403h219v51l-90 18l-240 342q104 29 160.5 86.5t56.5 149.5q0 68 -28.5 109.5t-74.5 63t-103.5 29t-112.5 7.5h-361v-51l99 -19 v-717l-99 -18v-51zM778 782v344h80q86 0 138.5 -29.5t52.5 -123.5q0 -102 -50.5 -146.5t-146.5 -44.5h-74z" />
<glyph unicode="&#xaf;" horiz-adv-x="679" d="M20 1325h639v139h-639v-139z" />
<glyph unicode="&#xb0;" horiz-adv-x="940" d="M129 1210q0 -158 92 -227.5t246 -69.5t247 76t93 221q0 154 -92 227.5t-244 73.5q-158 0 -250 -77t-92 -224zM295 1210q0 106 46 157.5t128 51.5q78 0 123 -51t45 -158q0 -111 -45 -156.5t-125 -45.5q-82 0 -127 49t-45 153z" />
<glyph unicode="&#xb1;" horiz-adv-x="1206" d="M117 0h979v139h-979v-139zM121 657h399v-360h182v360h398v140h-398v366h-182v-366h-399v-140z" />
<glyph unicode="&#xb2;" horiz-adv-x="940" d="M123 618h684l10 234h-121l-30 -109l-131 -4h-187l242 150q92 59 153.5 133t61.5 156q0 119 -91 168t-259 49q-100 0 -179 -18.5t-114 -30.5l-4 -19l24 -201h123l31 154q10 8 38.5 16.5t51.5 8.5q86 0 133 -32t47 -93q0 -84 -47 -137.5t-125 -110.5l-311 -230v-84z" />
<glyph unicode="&#xb3;" horiz-adv-x="946" d="M123 426l4 -8q51 -41 135 -66.5t182 -25.5q80 0 150 19.5t120 59t79.5 99t29.5 137.5q0 117 -56 178.5t-163 79.5q84 35 133 96.5t49 155.5q0 61 -25.5 107.5t-70.5 77t-105.5 45t-131.5 14.5q-94 0 -170 -20.5t-123 -49.5l22 -209h121l35 160q31 16 57.5 22.5t48.5 6.5 q66 0 107 -37t41 -127q0 -113 -63.5 -161t-161.5 -48h-56v-94h80q45 0 87 -8.5t75 -31t53.5 -58t20.5 -91.5q0 -113 -49.5 -166t-124.5 -53q-55 0 -94.5 10.5t-53.5 26.5l-35 160h-120z" />
<glyph unicode="&#xb4;" horiz-adv-x="512" d="M41 1200l98 -55l326 270l-150 125z" />
<glyph unicode="&#xb5;" horiz-adv-x="1880" d="M35 924v77l180 27v201q0 72 25.5 126t71.5 89t109.5 52t139.5 17q47 0 106.5 -7t120.5 -27v-74h-196q-74 0 -113 -33t-39 -106v-234h418v197q0 72 25.5 126t71.5 89t109.5 52t139.5 17q45 0 104.5 -7t123.5 -27v-74h-197q-76 0 -114 -33t-38 -106v-234h289q39 4 85 7 t92 6.5t91.5 7.5t83.5 6v-1059h-223v924h-420v-924h-223v924h-420v-924h-223v924h-180zM1477 1389q0 -57 39.5 -93t99.5 -36q59 0 99 35.5t40 93.5q0 57 -40 95t-99 38t-99 -38t-40 -95z" />
<glyph unicode="&#xb6;" horiz-adv-x="1155" d="M139 1155q0 -74 30 -139.5t81 -113.5t119.5 -76.5t146.5 -28.5h31v-797h151v1513h-182q-78 0 -146.5 -28.5t-119.5 -76.5t-81 -113.5t-30 -139.5zM788 -401h152v1783h186v131h-338v-1914z" />
<glyph unicode="&#xb7;" horiz-adv-x="516" d="M90 623q0 -72 44 -117t120 -45q80 0 126 46t46 118t-45 115.5t-121 43.5q-78 0 -124 -44t-46 -117z" />
<glyph unicode="&#xb8;" horiz-adv-x="358" d="M27 -193q53 -12 95 -32.5t42 -67.5q0 -59 -31 -96t-82 -60l43 -53q47 12 93 31.5t82 48.5t58.5 67t22.5 85q0 66 -38 107.5t-130 51.5v78h-121z" />
<glyph unicode="&#xb9;" horiz-adv-x="808" d="M123 1260v51l344 84l51 -2l-6 -131v-551q41 -4 89 -11.5t85 -11.5v-70h-534v70l176 25v547h-205z" />
<glyph unicode="&#xba;" horiz-adv-x="878" d="M94 1073q0 -180 87 -274t251 -94q352 -1 352 368q0 174 -86 267.5t-249 93.5q-354 0 -355 -361zM287 1073q0 147 39 214t114 67q76 0 115 -67t39 -214q0 -154 -40 -219.5t-118 -65.5q-74 0 -111.5 66t-37.5 219z" />
<glyph unicode="&#xbb;" horiz-adv-x="1075" d="M88 180l162 -30l328 415l-328 414l-162 -31q61 -90 131 -191.5t133 -191.5zM487 180l164 -30l328 415l-328 414l-164 -31q63 -90 132 -191.5t135 -191.5z" />
<glyph unicode="&#xbc;" horiz-adv-x="1792" d="M123 1298v43l340 89l39 -5l-4 -129v-557l176 -22v-66h-520v66l176 22v559h-207zM453 -180h159l650 1693h-156zM858 0v76l500 700h162v-674h149v-102h-149v-152l118 -20v-64h-399v64l117 20v152h-498zM1022 102h334v482z" />
<glyph unicode="&#xbd;" horiz-adv-x="1814" d="M123 1298v43l340 89l39 -5l-4 -129v-557l176 -22v-66h-520v66l176 22v559h-207zM453 -180h159l650 1693h-156zM995 0h686l11 233h-121l-33 -108l-129 -4h-186l239 149q94 59 155.5 133t61.5 156q0 119 -92 168t-258 49q-102 0 -180 -18.5t-113 -30.5l-4 -18l25 -201h121 l32 154q4 6 36 15t54 9q86 0 133.5 -31.5t47.5 -93.5q0 -84 -47.5 -137t-124.5 -111l-314 -229v-84z" />
<glyph unicode="&#xbe;" horiz-adv-x="2009" d="M123 426l4 -8q51 -41 135 -66.5t182 -25.5q80 0 150 19.5t120 59t79.5 99t29.5 137.5q0 117 -56 178.5t-163 79.5q84 35 134 96.5t50 155.5q0 61 -25.5 107.5t-71.5 77t-106.5 45t-131.5 14.5q-94 0 -169 -20.5t-122 -49.5l20 -209h121l35 160q31 16 57.5 22.5t48.5 6.5 q66 0 107 -37t41 -127q0 -113 -63.5 -161t-161.5 -48h-56v-94h80q45 0 87 -8.5t75 -31t53.5 -58t20.5 -91.5q0 -113 -49.5 -166t-124.5 -53q-55 0 -94.5 10.5t-53.5 26.5l-35 160h-120zM670 -180h159l650 1693h-156zM1075 0v76l500 700h162v-674h149v-102h-149v-152l118 -20 v-64h-399v64l117 20v152h-498zM1239 102h334v482z" />
<glyph unicode="&#xbf;" horiz-adv-x="1155" d="M190 -72q0 61 23 119.5t60.5 114t86 105.5t101.5 95q25 20 48 43t51 53.5t60.5 76t73.5 108.5l125 -47q-14 -39 -46 -92t-70.5 -107.5t-78.5 -104.5t-69 -85q-53 -63 -72.5 -135t-19.5 -152q0 -119 50 -188.5t171 -69.5q59 0 103 17.5t73 37.5l47 195h142l32 -270l-4 -17 q-37 -14 -86 -26.5t-101 -21.5t-104.5 -15t-97.5 -6q-109 0 -198 17t-154.5 59t-103 114t-42.5 182zM510 915q0 -59 45 -101t107 -42q66 0 107.5 42t41.5 101q0 63 -42 103.5t-107 40.5q-61 0 -106.5 -40t-45.5 -104z" />
<glyph unicode="&#xc0;" horiz-adv-x="1437" d="M31 0h239l9 104l167 453h488l145 -457l17 -100h286l-53 111l-463 1347h-233l-535 -1347zM369 1784l150 127l274 -342l-100 -55zM485 657l224 584l190 -584h-414z" />
<glyph unicode="&#xc1;" horiz-adv-x="1437" d="M31 0h239l9 104l167 453h488l145 -457l17 -100h286l-53 111l-463 1347h-233l-535 -1347zM485 657l224 584l190 -584h-414zM653 1569l98 -55l326 270l-150 125z" />
<glyph unicode="&#xc2;" horiz-adv-x="1437" d="M31 0h239l9 104l167 453h488l145 -457l17 -100h286l-53 111l-463 1347h-233l-535 -1347zM402 1581l260 260h139l260 -260l-92 -49l-238 168q-55 -39 -119.5 -84t-119.5 -84zM485 657l224 584l190 -584h-414z" />
<glyph unicode="&#xc3;" horiz-adv-x="1437" d="M31 0h239l9 104l167 453h488l145 -457l17 -100h286l-53 111l-463 1347h-233l-535 -1347zM377 1599l80 -43q29 29 64.5 55.5t76.5 26.5q31 0 68.5 -14t76.5 -33q41 -16 80 -30.5t82 -14.5q45 0 82 16.5t65.5 43t51 57t39.5 61.5l-76 47q-33 -33 -68.5 -60.5t-76.5 -27.5 q-27 0 -63 13.5t-75 29.5q-43 18 -85 33.5t-85 15.5q-47 0 -83.5 -15t-65.5 -41t-50.5 -57.5t-37.5 -62.5zM485 657l224 584l190 -584h-414z" />
<glyph unicode="&#xc4;" horiz-adv-x="1437" d="M31 0h239l9 104l167 453h488l145 -457l17 -100h286l-53 111l-463 1347h-233l-535 -1347zM393 1636q0 -45 37 -74.5t95 -29.5q59 0 97 29.5t38 74.5q0 47 -38 78t-95 31q-59 0 -96.5 -31t-37.5 -78zM485 657l224 584l190 -584h-414zM842 1636q0 -45 37 -74.5t96 -29.5 t96 29.5t37 74.5q0 47 -36.5 78t-94.5 31q-59 0 -97 -31t-38 -78z" />
<glyph unicode="&#xc5;" horiz-adv-x="1437" d="M31 0h239l9 104l167 453h488l145 -457l17 -100h286l-53 111l-463 1347h-233l-535 -1347zM485 657l224 584l190 -584h-414zM523 1684q0 -84 60 -138.5t163 -54.5q106 0 165.5 55.5t59.5 137.5q0 84 -59.5 138t-161.5 54q-104 0 -165.5 -54t-61.5 -138zM641 1684 q0 53 30 84.5t79 31.5q47 0 74.5 -31.5t27.5 -84.5q0 -51 -28.5 -84t-77.5 -33q-47 0 -76 32.5t-29 84.5z" />
<glyph unicode="&#xc6;" horiz-adv-x="1951" d="M35 0h241l7 102l-4 -4q63 117 125.5 229.5t123.5 229.5h379v-557h944l4 23v108q-78 -4 -172 -11t-172 -11h-358v598h250l244 -11v113q-25 0 -55.5 -1t-64.5 -2t-67 -2t-57 -1h-250v522h328l344 -22v108l-4 23h-772l-207 28q-184 -338 -368.5 -675.5t-369.5 -675.5v2z M573 657q86 158 167 305.5t167 301.5v-607h-334z" />
<glyph unicode="&#xc7;" horiz-adv-x="1331" d="M100 696q0 199 57.5 342.5t160 236.5t242.5 138t306 45q113 0 210.5 -21.5t180.5 -47.5l5 -15l-31 -270h-139l-48 192l19 -8q-43 23 -97.5 39t-121.5 16q-111 0 -199 -38.5t-150.5 -114.5t-96 -189.5t-33.5 -265.5q0 -319 130 -474t384 -155q78 0 160.5 19.5t191.5 54.5 l20 -71q-84 -55 -201.5 -94.5t-267.5 -39.5q-12 0 -7 -1t-7 1q-4 -23 -7 -41t-7 -45q92 -10 131 -51.5t39 -107.5q0 -47 -22.5 -85t-59.5 -67t-83 -48t-93 -32l-41 53q49 23 79.5 60t30.5 96q0 23 -15 39t-38 27.5t-51.5 19.5t-52.5 14l40 183q-115 20 -210 70.5 t-163.5 136.5t-106.5 209.5t-38 289.5z" />
<glyph unicode="&#xc8;" horiz-adv-x="1214" d="M180 0h942l4 23v108l-342 -22h-360v598h250l244 -11v113l-244 -6h-250v522h328l346 -22v108l-4 23h-914v-1434zM295 1784l150 127l274 -342l-100 -55z" />
<glyph unicode="&#xc9;" horiz-adv-x="1214" d="M180 0h942l4 23v108l-342 -22h-360v598h250l244 -11v113l-244 -6h-250v522h328l346 -22v108l-4 23h-914v-1434zM512 1569l98 -55l326 270l-150 125z" />
<glyph unicode="&#xca;" horiz-adv-x="1214" d="M180 0h942l4 23v108l-342 -22h-360v598h250l244 -11v113l-244 -6h-250v522h328l346 -22v108l-4 23h-914v-1434zM260 1581l260 260h139l260 -260l-92 -49l-238 168q-55 -39 -119.5 -84t-119.5 -84z" />
<glyph unicode="&#xcb;" horiz-adv-x="1214" d="M180 0h942l4 23v108l-342 -22h-360v598h250l244 -11v113l-244 -6h-250v522h328l346 -22v108l-4 23h-914v-1434zM235 1636q0 -45 37 -74.5t95 -29.5q59 0 97 29.5t38 74.5q0 47 -38 78t-95 31q-59 0 -96.5 -31t-37.5 -78zM684 1636q0 -45 37 -74.5t96 -29.5t96 29.5 t37 74.5q0 47 -36.5 78t-94.5 31q-59 0 -97 -31t-38 -78z" />
<glyph unicode="&#xcc;" horiz-adv-x="671" d="M4 1784l150 127l274 -342l-100 -55zM213 0h246v1434h-246v-1434z" />
<glyph unicode="&#xcd;" horiz-adv-x="671" d="M213 0h246v1434h-246v-1434zM264 1569l98 -55l326 270l-150 125z" />
<glyph unicode="&#xce;" horiz-adv-x="671" d="M11 1581l260 260h139l260 -260l-92 -49l-238 168q-55 -39 -119.5 -84t-119.5 -84zM213 0h246v1434h-246v-1434z" />
<glyph unicode="&#xcf;" horiz-adv-x="671" d="M-19 1636q0 -45 37 -74.5t95 -29.5q59 0 97 29.5t38 74.5q0 47 -38 78t-95 31q-59 0 -96.5 -31t-37.5 -78zM213 0h246v1434h-246v-1434zM430 1636q0 -45 37 -74.5t96 -29.5t96 29.5t37 74.5q0 47 -36.5 78t-94.5 31q-59 0 -97 -31t-38 -78z" />
<glyph unicode="&#xd0;" horiz-adv-x="1560" d="M59 682h162v-682h449q176 0 321.5 45t248.5 135t160.5 229.5t57.5 325.5q0 199 -60.5 333t-167 215t-250.5 116t-312 35h-447v-643h-162v-109zM469 109v573h207v109h-207v544h174q266 0 399.5 -150.5t149.5 -463.5q-4 -205 -69.5 -344t-170.5 -205q-68 -37 -154.5 -50 t-189.5 -13h-139z" />
<glyph unicode="&#xd1;" horiz-adv-x="1552" d="M182 0h144v1237l870 -1249h174v1446h-143v-1100l-768 1100h-277v-1434zM371 1599l80 -43q29 29 64.5 55.5t76.5 26.5q31 0 68.5 -14t76.5 -33q41 -16 80 -30.5t82 -14.5q45 0 82 16.5t65.5 43t51 57t39.5 61.5l-76 47q-33 -33 -68.5 -60.5t-76.5 -27.5q-27 0 -63 13.5 t-75 29.5q-43 18 -85 33.5t-85 15.5q-47 0 -83.5 -15t-65.5 -41t-50.5 -57.5t-37.5 -62.5z" />
<glyph unicode="&#xd2;" horiz-adv-x="1613" d="M113 705q0 -360 179 -545t505 -185q338 0 521 190.5t183 557.5q0 180 -47 317.5t-136 230.5t-217 140t-288 47t-290 -48t-221 -142t-140 -235.5t-49 -327.5zM379 723q0 322 112.5 472.5t317.5 150.5q203 0 314.5 -154.5t111.5 -480.5q0 -322 -111.5 -472.5t-318.5 -150.5 q-205 0 -315.5 154.5t-110.5 480.5zM463 1784l150 127l274 -342l-100 -55z" />
<glyph unicode="&#xd3;" horiz-adv-x="1613" d="M113 705q0 -360 179 -545t505 -185q338 0 521 190.5t183 557.5q0 180 -47 317.5t-136 230.5t-217 140t-288 47t-290 -48t-221 -142t-140 -235.5t-49 -327.5zM379 723q0 322 112.5 472.5t317.5 150.5q203 0 314.5 -154.5t111.5 -480.5q0 -322 -111.5 -472.5t-318.5 -150.5 q-205 0 -315.5 154.5t-110.5 480.5zM711 1569l98 -55l326 270l-150 125z" />
<glyph unicode="&#xd4;" horiz-adv-x="1613" d="M113 705q0 -360 179 -545t505 -185q338 0 521 190.5t183 557.5q0 180 -47 317.5t-136 230.5t-217 140t-288 47t-290 -48t-221 -142t-140 -235.5t-49 -327.5zM379 723q0 322 112.5 472.5t317.5 150.5q203 0 314.5 -154.5t111.5 -480.5q0 -322 -111.5 -472.5t-318.5 -150.5 q-205 0 -315.5 154.5t-110.5 480.5zM488 1581l260 260h139l260 -260l-92 -49l-238 168q-55 -39 -119.5 -84t-119.5 -84z" />
<glyph unicode="&#xd5;" horiz-adv-x="1613" d="M113 705q0 -360 179 -545t505 -185q338 0 521 190.5t183 557.5q0 180 -47 317.5t-136 230.5t-217 140t-288 47t-290 -48t-221 -142t-140 -235.5t-49 -327.5zM379 723q0 322 112.5 472.5t317.5 150.5q203 0 314.5 -154.5t111.5 -480.5q0 -322 -111.5 -472.5t-318.5 -150.5 q-205 0 -315.5 154.5t-110.5 480.5zM449 1599l80 -43q29 29 64.5 55.5t76.5 26.5q31 0 68.5 -14t76.5 -33q41 -16 80 -30.5t82 -14.5q45 0 82 16.5t65.5 43t51 57t39.5 61.5l-76 47q-33 -33 -68.5 -60.5t-76.5 -27.5q-27 0 -63 13.5t-75 29.5q-43 18 -85 33.5t-85 15.5 q-47 0 -83.5 -15t-65.5 -41t-50.5 -57.5t-37.5 -62.5z" />
<glyph unicode="&#xd6;" horiz-adv-x="1613" d="M113 705q0 -360 179 -545t505 -185q338 0 521 190.5t183 557.5q0 180 -47 317.5t-136 230.5t-217 140t-288 47t-290 -48t-221 -142t-140 -235.5t-49 -327.5zM379 723q0 322 112.5 472.5t317.5 150.5q203 0 314.5 -154.5t111.5 -480.5q0 -322 -111.5 -472.5t-318.5 -150.5 q-205 0 -315.5 154.5t-110.5 480.5zM464 1636q0 -45 37 -74.5t95 -29.5q59 0 97 29.5t38 74.5q0 47 -38 78t-95 31q-59 0 -96.5 -31t-37.5 -78zM913 1636q0 -45 37 -74.5t96 -29.5t96 29.5t37 74.5q0 47 -36.5 78t-94.5 31q-59 0 -97 -31t-38 -78z" />
<glyph unicode="&#xd7;" horiz-adv-x="1114" d="M94 985l123 105l338 -297q84 72 172 149.5t170 147.5l123 -105l-340 -293q82 -72 167 -146.5t169 -144.5l-115 -106l-344 293l-342 -293l-117 106l334 291q-82 72 -168 146.5t-170 146.5z" />
<glyph unicode="&#xd8;" horiz-adv-x="1613" d="M113 705q0 -360 179 -545t505 -185q338 0 521 190.5t183 557.5q0 180 -47 317.5t-136 230.5t-217 140t-288 47t-290 -48t-221 -142t-140 -235.5t-49 -327.5zM379 723q0 322 112.5 472.5t317.5 150.5h33q16 0 32 -5q-76 -305 -147.5 -596.5t-146.5 -597.5 q-201 130 -201 576zM743 90q72 299 146 595t145 595q98 -66 149.5 -206t51.5 -363q0 -322 -111.5 -472.5t-318.5 -150.5h-33q-14 0 -29 2z" />
<glyph unicode="&#xd9;" horiz-adv-x="1464" d="M141 498q0 -143 42 -242.5t119 -162t184.5 -90.5t238.5 -28q154 0 266.5 29t186 93.5t109.5 167t36 251.5v918h-190v-951q0 -205 -87.5 -300t-281.5 -95q-186 0 -282.5 92t-96.5 252v1002h-244v-936zM428 1784l150 127l274 -342l-100 -55z" />
<glyph unicode="&#xda;" horiz-adv-x="1464" d="M141 498q0 -143 42 -242.5t119 -162t184.5 -90.5t238.5 -28q154 0 266.5 29t186 93.5t109.5 167t36 251.5v918h-190v-951q0 -205 -87.5 -300t-281.5 -95q-186 0 -282.5 92t-96.5 252v1002h-244v-936zM674 1569l98 -55l326 270l-150 125z" />
<glyph unicode="&#xdb;" horiz-adv-x="1464" d="M141 498q0 -143 42 -242.5t119 -162t184.5 -90.5t238.5 -28q154 0 266.5 29t186 93.5t109.5 167t36 251.5v918h-190v-951q0 -205 -87.5 -300t-281.5 -95q-186 0 -282.5 92t-96.5 252v1002h-244v-936zM445 1581l260 260h139l260 -260l-92 -49l-238 168q-55 -39 -119.5 -84 t-119.5 -84z" />
<glyph unicode="&#xdc;" horiz-adv-x="1464" d="M141 498q0 -143 42 -242.5t119 -162t184.5 -90.5t238.5 -28q154 0 266.5 29t186 93.5t109.5 167t36 251.5v918h-190v-951q0 -205 -87.5 -300t-281.5 -95q-186 0 -282.5 92t-96.5 252v1002h-244v-936zM401 1636q0 -45 37 -74.5t95 -29.5q59 0 97 29.5t38 74.5q0 47 -38 78 t-95 31q-59 0 -96.5 -31t-37.5 -78zM850 1636q0 -45 37 -74.5t96 -29.5t96 29.5t37 74.5q0 47 -36.5 78t-94.5 31q-59 0 -97 -31t-38 -78z" />
<glyph unicode="&#xdd;" horiz-adv-x="1347" d="M49 1434l84 -113l420 -746v-575h246v596l430 725l90 113h-232l-24 -97l-346 -583l-330 581l-29 99h-309zM635 1569l98 -55l326 270l-150 125z" />
<glyph unicode="&#xde;" horiz-adv-x="1146" d="M246 0h180v303q113 2 226.5 17.5t205.5 61.5t149.5 132t57.5 227q0 139 -58.5 223.5t-150.5 130.5t-205.5 60t-224.5 16v263h-180v-1434zM426 381v717q72 -2 151.5 -15.5t147.5 -51.5t112 -106.5t44 -183.5q0 -113 -44 -183.5t-112 -108t-147.5 -52t-151.5 -16.5z" />
<glyph unicode="&#xdf;" horiz-adv-x="1335" d="M18 709q35 -6 78 -14.5t82 -16.5v-1059h225v1411q0 74 5.5 140.5t31 118.5t76.5 83t143 31q117 0 173.5 -49t56.5 -142q0 -27 -12.5 -55.5t-32 -55t-43 -51t-45.5 -44.5l2 2q-49 -37 -85 -69t-58.5 -62.5t-33 -64.5t-10.5 -77t15.5 -77.5t40 -63.5t57.5 -51.5t68 -44.5 q23 -12 41 -22.5t41 -20.5q35 -18 67.5 -37t57 -43.5t39 -55t14.5 -73.5q0 -82 -46 -126t-128 -44q-29 0 -69 7t-73 21l-45 199h-141l-10 -270l4 -15q84 -29 168 -36t137 -7q197 0 310.5 79t113.5 243q4 70 -32 127t-92 103t-122.5 82t-126.5 63h2q-41 25 -64.5 49t-23.5 59 q0 37 14.5 68t38 56.5t52 47t59.5 41.5q37 25 70.5 50.5t60.5 53t43 58.5t16 70q0 80 -44 133t-114.5 87t-160.5 48t-184 14q-236 0 -341.5 -114.5t-105.5 -337.5v-264h-160v-82z" />
<glyph unicode="&#xe0;" horiz-adv-x="1067" d="M76 258q0 -131 91 -207t243 -76q90 0 169.5 24t145.5 62l-6 -92l223 33l19 21q-2 43 -4.5 87t-4.5 87v514q0 82 -24.5 146.5t-77.5 108.5t-136 67.5t-202 23.5q-168 0 -344 -49l-4 -19l33 -268h139q10 43 22.5 95t22.5 97q35 16 65.5 23.5t65.5 7.5q31 0 67.5 -9 t69.5 -36t55.5 -74t22.5 -123v-124h-18t-10.5 1t-10.5 1h-16q-111 0 -217.5 -11.5t-190.5 -46.5t-136 -97.5t-52 -166.5zM207 1415l150 127l274 -342l-100 -55zM319 283q0 55 28 93t75 61.5t109.5 33.5t132.5 10h30q16 0 33 -2v-307q-47 -25 -106.5 -45.5t-112.5 -20.5 q-88 0 -138.5 43.5t-50.5 133.5z" />
<glyph unicode="&#xe1;" horiz-adv-x="1067" d="M76 258q0 -131 91 -207t243 -76q90 0 169.5 24t145.5 62l-6 -92l223 33l19 21q-2 43 -4.5 87t-4.5 87v514q0 82 -24.5 146.5t-77.5 108.5t-136 67.5t-202 23.5q-168 0 -344 -49l-4 -19l33 -268h139q10 43 22.5 95t22.5 97q35 16 65.5 23.5t65.5 7.5q31 0 67.5 -9 t69.5 -36t55.5 -74t22.5 -123v-124h-18t-10.5 1t-10.5 1h-16q-111 0 -217.5 -11.5t-190.5 -46.5t-136 -97.5t-52 -166.5zM319 283q0 55 28 93t75 61.5t109.5 33.5t132.5 10h30q16 0 33 -2v-307q-47 -25 -106.5 -45.5t-112.5 -20.5q-88 0 -138.5 43.5t-50.5 133.5zM449 1200 l98 -55l326 270l-150 125z" />
<glyph unicode="&#xe2;" horiz-adv-x="1067" d="M76 258q0 -131 91 -207t243 -76q90 0 169.5 24t145.5 62l-6 -92l223 33l19 21q-2 43 -4.5 87t-4.5 87v514q0 82 -24.5 146.5t-77.5 108.5t-136 67.5t-202 23.5q-168 0 -344 -49l-4 -19l33 -268h139q10 43 22.5 95t22.5 97q35 16 65.5 23.5t65.5 7.5q31 0 67.5 -9 t69.5 -36t55.5 -74t22.5 -123v-124h-18t-10.5 1t-10.5 1h-16q-111 0 -217.5 -11.5t-190.5 -46.5t-136 -97.5t-52 -166.5zM219 1274l260 260h139l260 -260l-92 -49l-238 168q-55 -39 -119.5 -84t-119.5 -84zM319 283q0 55 28 93t75 61.5t109.5 33.5t132.5 10h30q16 0 33 -2 v-307q-47 -25 -106.5 -45.5t-112.5 -20.5q-88 0 -138.5 43.5t-50.5 133.5z" />
<glyph unicode="&#xe3;" horiz-adv-x="1067" d="M76 258q0 -131 91 -207t243 -76q90 0 169.5 24t145.5 62l-6 -92l223 33l19 21q-2 43 -4.5 87t-4.5 87v514q0 82 -24.5 146.5t-77.5 108.5t-136 67.5t-202 23.5q-168 0 -344 -49l-4 -19l33 -268h139q10 43 22.5 95t22.5 97q35 16 65.5 23.5t65.5 7.5q31 0 67.5 -9 t69.5 -36t55.5 -74t22.5 -123v-124h-18t-10.5 1t-10.5 1h-16q-111 0 -217.5 -11.5t-190.5 -46.5t-136 -97.5t-52 -166.5zM195 1292l80 -43q29 29 64.5 55.5t76.5 26.5q31 0 68.5 -14t76.5 -33q41 -16 80 -30.5t82 -14.5q45 0 82 16.5t65.5 43t51 57t39.5 61.5l-76 47 q-33 -33 -68.5 -60.5t-76.5 -27.5q-27 0 -63 13.5t-75 29.5q-43 18 -85 33.5t-85 15.5q-47 0 -83.5 -15t-65.5 -41t-50.5 -57.5t-37.5 -62.5zM319 283q0 55 28 93t75 61.5t109.5 33.5t132.5 10h30q16 0 33 -2v-307q-47 -25 -106.5 -45.5t-112.5 -20.5q-88 0 -138.5 43.5 t-50.5 133.5z" />
<glyph unicode="&#xe4;" horiz-adv-x="1067" d="M76 258q0 -131 91 -207t243 -76q90 0 169.5 24t145.5 62l-6 -92l223 33l19 21q-2 43 -4.5 87t-4.5 87v514q0 82 -24.5 146.5t-77.5 108.5t-136 67.5t-202 23.5q-168 0 -344 -49l-4 -19l33 -268h139q10 43 22.5 95t22.5 97q35 16 65.5 23.5t65.5 7.5q31 0 67.5 -9 t69.5 -36t55.5 -74t22.5 -123v-124h-18t-10.5 1t-10.5 1h-16q-111 0 -217.5 -11.5t-190.5 -46.5t-136 -97.5t-52 -166.5zM206 1329q0 -45 37 -74.5t95 -29.5q59 0 97 29.5t38 74.5q0 47 -38 78t-95 31q-59 0 -96.5 -31t-37.5 -78zM319 283q0 55 28 93t75 61.5t109.5 33.5 t132.5 10h30q16 0 33 -2v-307q-47 -25 -106.5 -45.5t-112.5 -20.5q-88 0 -138.5 43.5t-50.5 133.5zM655 1329q0 -45 37 -74.5t96 -29.5t96 29.5t37 74.5q0 47 -36.5 78t-94.5 31q-59 0 -97 -31t-38 -78z" />
<glyph unicode="&#xe5;" horiz-adv-x="1067" d="M76 258q0 -131 91 -207t243 -76q90 0 169.5 24t145.5 62l-6 -92l223 33l19 21q-2 43 -4.5 87t-4.5 87v514q0 82 -24.5 146.5t-77.5 108.5t-136 67.5t-202 23.5q-168 0 -344 -49l-4 -19l33 -268h139q10 43 22.5 95t22.5 97q35 16 65.5 23.5t65.5 7.5q31 0 67.5 -9 t69.5 -36t55.5 -74t22.5 -123v-124h-18t-10.5 1t-10.5 1h-16q-111 0 -217.5 -11.5t-190.5 -46.5t-136 -97.5t-52 -166.5zM319 283q0 55 28 93t75 61.5t109.5 33.5t132.5 10h30q16 0 33 -2v-307q-47 -25 -106.5 -45.5t-112.5 -20.5q-88 0 -138.5 43.5t-50.5 133.5zM349 1393 q0 -84 60 -138.5t163 -54.5q106 0 165.5 55.5t59.5 137.5q0 84 -59.5 138t-161.5 54q-104 0 -165.5 -54t-61.5 -138zM467 1393q0 53 30 84.5t79 31.5q47 0 74.5 -31.5t27.5 -84.5q0 -51 -28.5 -84t-77.5 -33q-47 0 -76 32.5t-29 84.5z" />
<glyph unicode="&#xe6;" horiz-adv-x="1728" d="M63 260q0 -133 90.5 -209t243.5 -76q131 0 236.5 30t212.5 110q66 -66 165 -103t218 -37q72 0 135 12.5t116.5 30t95.5 38t69 36.5v101q-104 -43 -214 -69t-214 -9q-135 25 -198 136t-65 279h674q14 70 14 140q0 82 -26.5 152.5t-78.5 122.5t-130 82t-180 30 q-227 0 -359 -119q-49 55 -141 87t-227 32q-80 0 -167 -12.5t-177 -36.5l-4 -19l30 -270h144l45 192q29 12 63.5 20.5t65.5 8.5q29 0 65.5 -9t69.5 -35t55.5 -73t22.5 -121v-120h-56q-111 0 -217 -11.5t-190 -46.5t-135.5 -97t-51.5 -167zM309 285q0 53 28 91t74 61.5 t108.5 33.5t129.5 10h31q16 0 33 -2q4 -78 17 -143.5t42 -118.5q-76 -59 -150.5 -82.5t-125.5 -23.5q-88 0 -137.5 42t-49.5 132zM956 633q4 154 71 236.5t177 82.5q55 0 95 -22.5t67 -63.5t39 -97t14 -122l-231 -14h-232z" />
<glyph unicode="&#xe7;" horiz-adv-x="1044" d="M86 512q0 147 44 250.5t118 169t172 95.5t209 30q82 0 169 -12.5t175 -36.5l4 -19l-33 -268h-139l-45 192q-29 12 -65 21.5t-66 9.5q-55 0 -108.5 -25.5t-96.5 -75.5t-69.5 -126t-26.5 -176q0 -111 19.5 -190t55 -130t86 -77.5t109.5 -34.5q41 -6 76 -7q78 0 165 25 t169 61v-96q-51 -33 -143.5 -71.5t-219.5 -45.5q-4 -23 -6 -42t-6 -44q94 -10 131 -51.5t37 -107.5q0 -47 -22.5 -85t-59.5 -67t-83 -48t-93 -32l-43 53q51 23 81.5 60t30.5 96q0 23 -15 39t-37.5 27.5t-51.5 19.5t-53 14l41 177q-86 14 -161 51t-130 101.5t-87 157.5 t-32 218z" />
<glyph unicode="&#xe8;" horiz-adv-x="1095" d="M88 512q0 -135 37 -236.5t104.5 -168t162.5 -99.5t212 -33q72 0 134.5 12.5t115.5 30t95 38t69 36.5v94q-102 -39 -213 -66.5t-213 -8.5q-137 27 -199.5 140.5t-66.5 280.5h678q8 35 10 71t2 65q0 82 -26.5 153.5t-79 123.5t-129 82t-179.5 30q-240 0 -377 -137.5 t-137 -407.5zM309 1415l150 127l274 -342l-100 -55zM328 631q2 160 68.5 242.5t183.5 82.5q115 0 165 -87t52 -224l-119 -7t-117 -7h-233z" />
<glyph unicode="&#xe9;" horiz-adv-x="1095" d="M88 512q0 -135 37 -236.5t104.5 -168t162.5 -99.5t212 -33q72 0 134.5 12.5t115.5 30t95 38t69 36.5v94q-102 -39 -213 -66.5t-213 -8.5q-137 27 -199.5 140.5t-66.5 280.5h678q8 35 10 71t2 65q0 82 -26.5 153.5t-79 123.5t-129 82t-179.5 30q-240 0 -377 -137.5 t-137 -407.5zM328 631q2 160 68.5 242.5t183.5 82.5q115 0 165 -87t52 -224l-119 -7t-117 -7h-233zM504 1200l98 -55l326 270l-150 125z" />
<glyph unicode="&#xea;" horiz-adv-x="1095" d="M88 512q0 -135 37 -236.5t104.5 -168t162.5 -99.5t212 -33q72 0 134.5 12.5t115.5 30t95 38t69 36.5v94q-102 -39 -213 -66.5t-213 -8.5q-137 27 -199.5 140.5t-66.5 280.5h678q8 35 10 71t2 65q0 82 -26.5 153.5t-79 123.5t-129 82t-179.5 30q-240 0 -377 -137.5 t-137 -407.5zM254 1274l260 260h139l260 -260l-92 -49l-238 168q-55 -39 -119.5 -84t-119.5 -84zM328 631q2 160 68.5 242.5t183.5 82.5q115 0 165 -87t52 -224l-119 -7t-117 -7h-233z" />
<glyph unicode="&#xeb;" horiz-adv-x="1095" d="M88 512q0 -135 37 -236.5t104.5 -168t162.5 -99.5t212 -33q72 0 134.5 12.5t115.5 30t95 38t69 36.5v94q-102 -39 -213 -66.5t-213 -8.5q-137 27 -199.5 140.5t-66.5 280.5h678q8 35 10 71t2 65q0 82 -26.5 153.5t-79 123.5t-129 82t-179.5 30q-240 0 -377 -137.5 t-137 -407.5zM243 1329q0 -45 37 -74.5t95 -29.5q59 0 97 29.5t38 74.5q0 47 -38 78t-95 31q-59 0 -96.5 -31t-37.5 -78zM328 631q2 160 68.5 242.5t183.5 82.5q115 0 165 -87t52 -224l-119 -7t-117 -7h-233zM692 1329q0 -45 37 -74.5t96 -29.5t96 29.5t37 74.5 q0 47 -36.5 78t-94.5 31q-59 0 -97 -31t-38 -78z" />
<glyph unicode="&#xec;" horiz-adv-x="516" d="M-18 1415l150 127l274 -342l-100 -55zM143 1010l19 20l212 33v-1063h-223v836q-2 43 -4 87t-4 87z" />
<glyph unicode="&#xed;" horiz-adv-x="514" d="M143 1010l19 20l212 33v-1063h-223v836q-2 43 -4 87t-4 87zM180 1200l98 -55l326 270l-150 125z" />
<glyph unicode="&#xee;" horiz-adv-x="536" d="M-59 1274l260 260h139l260 -260l-92 -49l-238 168q-55 -39 -119.5 -84t-119.5 -84zM143 1010l19 20l212 33v-1063h-223v836q-2 43 -4 87t-4 87z" />
<glyph unicode="&#xef;" horiz-adv-x="534" d="M-89 1329q0 -45 37 -74.5t95 -29.5q59 0 97 29.5t38 74.5q0 47 -38 78t-95 31q-59 0 -96.5 -31t-37.5 -78zM141 1010l19 20l212 33v-1063h-223v836q-2 43 -4 87t-4 87zM360 1329q0 -45 37 -74.5t96 -29.5t96 29.5t37 74.5q0 47 -36.5 78t-94.5 31q-59 0 -97 -31t-38 -78z " />
<glyph unicode="&#xf0;" horiz-adv-x="1218" d="M98 461q0 113 33 193.5t90.5 134t137 79t171.5 25.5q33 0 73 -4t83 -15.5t86 -29t82 -41.5q-4 150 -55 264.5t-148 181.5q-43 -29 -96 -65.5t-94 -63.5l-60 97l142 92q-141 55 -353 53v106q47 4 90.5 6.5t79.5 2.5q102 0 186.5 -12.5t158.5 -43.5l200 138l60 -99 l-144 -96q135 -96 207 -269t70 -452q0 -178 -35 -305t-99.5 -207t-155.5 -118t-208 -38q-236 0 -369 122t-133 364zM342 449q0 -182 65.5 -271.5t190.5 -89.5q68 0 117 34t79.5 105.5t45 187t14.5 277.5q-57 31 -121.5 51.5t-128.5 20.5q-125 0 -193.5 -71.5t-68.5 -243.5z " />
<glyph unicode="&#xf1;" horiz-adv-x="1163" d="M137 1010l8 -174v-836h224v872q90 20 149.5 27.5t112.5 7.5q78 0 119 -24.5t59 -65.5t21.5 -95t3.5 -114v-608h223v762q-4 135 -89 215t-237 80q-47 0 -89 -3t-84 -12.5t-87 -26t-96 -40.5l2 88l-221 -33zM199 1292l80 -43q29 29 64.5 55.5t76.5 26.5q31 0 68.5 -14 t76.5 -33q41 -16 80 -30.5t82 -14.5q45 0 82 16.5t65.5 43t51 57t39.5 61.5l-76 47q-33 -33 -68.5 -60.5t-76.5 -27.5q-27 0 -63 13.5t-75 29.5q-43 18 -85 33.5t-85 15.5q-47 0 -83.5 -15t-65.5 -41t-50.5 -57.5t-37.5 -62.5z" />
<glyph unicode="&#xf2;" d="M88 520q0 -268 126 -406.5t368 -138.5q248 0 378 135.5t130 409.5q0 264 -125 400.5t-367 136.5q-248 0 -379 -134.5t-131 -402.5zM276 1415l150 127l274 -342l-100 -55zM336 520q0 231 65.5 333.5t188.5 102.5t187.5 -102.5t64.5 -333.5q0 -233 -65.5 -336.5 t-190.5 -103.5q-121 0 -185.5 103.5t-64.5 336.5z" />
<glyph unicode="&#xf3;" d="M88 520q0 -268 126 -406.5t368 -138.5q248 0 378 135.5t130 409.5q0 264 -125 400.5t-367 136.5q-248 0 -379 -134.5t-131 -402.5zM336 520q0 231 65.5 333.5t188.5 102.5t187.5 -102.5t64.5 -333.5q0 -233 -65.5 -336.5t-190.5 -103.5q-121 0 -185.5 103.5t-64.5 336.5z M522 1200l98 -55l326 270l-150 125z" />
<glyph unicode="&#xf4;" d="M88 520q0 -268 126 -406.5t368 -138.5q248 0 378 135.5t130 409.5q0 264 -125 400.5t-367 136.5q-248 0 -379 -134.5t-131 -402.5zM265 1274l260 260h139l260 -260l-92 -49l-238 168q-55 -39 -119.5 -84t-119.5 -84zM336 520q0 231 65.5 333.5t188.5 102.5t187.5 -102.5 t64.5 -333.5q0 -233 -65.5 -336.5t-190.5 -103.5q-121 0 -185.5 103.5t-64.5 336.5z" />
<glyph unicode="&#xf5;" d="M88 520q0 -268 126 -406.5t368 -138.5q248 0 378 135.5t130 409.5q0 264 -125 400.5t-367 136.5q-248 0 -379 -134.5t-131 -402.5zM215 1292l80 -43q29 29 64.5 55.5t76.5 26.5q31 0 68.5 -14t76.5 -33q41 -16 80 -30.5t82 -14.5q45 0 82 16.5t65.5 43t51 57t39.5 61.5 l-76 47q-33 -33 -68.5 -60.5t-76.5 -27.5q-27 0 -63 13.5t-75 29.5q-43 18 -85 33.5t-85 15.5q-47 0 -83.5 -15t-65.5 -41t-50.5 -57.5t-37.5 -62.5zM336 520q0 231 65.5 333.5t188.5 102.5t187.5 -102.5t64.5 -333.5q0 -233 -65.5 -336.5t-190.5 -103.5 q-121 0 -185.5 103.5t-64.5 336.5z" />
<glyph unicode="&#xf6;" d="M88 520q0 -268 126 -406.5t368 -138.5q248 0 378 135.5t130 409.5q0 264 -125 400.5t-367 136.5q-248 0 -379 -134.5t-131 -402.5zM233 1329q0 -45 37 -74.5t95 -29.5q59 0 97 29.5t38 74.5q0 47 -38 78t-95 31q-59 0 -96.5 -31t-37.5 -78zM336 520q0 231 65.5 333.5 t188.5 102.5t187.5 -102.5t64.5 -333.5q0 -233 -65.5 -336.5t-190.5 -103.5q-121 0 -185.5 103.5t-64.5 336.5zM682 1329q0 -45 37 -74.5t96 -29.5t96 29.5t37 74.5q0 47 -36.5 78t-94.5 31q-59 0 -97 -31t-38 -78z" />
<glyph unicode="&#xf7;" horiz-adv-x="1206" d="M115 625h979v141h-979v-141zM461 299q0 -63 37 -101t100 -38t102 38.5t39 106.5q0 57 -40 98t-99 41q-63 0 -101 -42t-38 -103zM463 1100q0 -59 37 -98t100 -39t102 40t39 99q0 68 -38.5 103.5t-98.5 35.5q-66 0 -103.5 -36t-37.5 -105z" />
<glyph unicode="&#xf8;" d="M88 520q0 -266 126 -405.5t368 -139.5q248 0 378 136.5t130 408.5q0 262 -125 399.5t-367 137.5q-248 0 -379 -134.5t-131 -402.5zM340 520q0 231 65.5 331.5t198.5 100.5q-49 -199 -99 -390t-97 -390q-33 51 -50.5 138t-17.5 210zM569 84q47 203 96.5 395.5t96.5 392.5 q76 -100 76 -352q0 -231 -66.5 -333.5t-202.5 -102.5z" />
<glyph unicode="&#xf9;" horiz-adv-x="1171" d="M109 1010l16 20l213 33v-639q0 -59 3 -113.5t21.5 -95.5t59.5 -65.5t119 -24.5q53 0 112.5 7t149.5 26v678q-2 43 -4 87t-4 87l18 20l213 33v-866q2 -43 3 -87t3 -87l-16 -21l-223 -33l4 86q-51 -25 -96.5 -40t-87.5 -24t-84 -12.5t-89 -3.5q-152 0 -236.5 80t-88.5 215 v566q-2 43 -4 87t-2 87zM203 1415l150 127l274 -342l-100 -55z" />
<glyph unicode="&#xfa;" horiz-adv-x="1171" d="M109 1010l16 20l213 33v-639q0 -59 3 -113.5t21.5 -95.5t59.5 -65.5t119 -24.5q53 0 112.5 7t149.5 26v678q-2 43 -4 87t-4 87l18 20l213 33v-866q2 -43 3 -87t3 -87l-16 -21l-223 -33l4 86q-51 -25 -96.5 -40t-87.5 -24t-84 -12.5t-89 -3.5q-152 0 -236.5 80t-88.5 215 v566q-2 43 -4 87t-2 87zM447 1200l98 -55l326 270l-150 125z" />
<glyph unicode="&#xfb;" horiz-adv-x="1171" d="M109 1010l16 20l213 33v-639q0 -59 3 -113.5t21.5 -95.5t59.5 -65.5t119 -24.5q53 0 112.5 7t149.5 26v678q-2 43 -4 87t-4 87l18 20l213 33v-866q2 -43 3 -87t3 -87l-16 -21l-223 -33l4 86q-51 -25 -96.5 -40t-87.5 -24t-84 -12.5t-89 -3.5q-152 0 -236.5 80t-88.5 215 v566q-2 43 -4 87t-2 87zM238 1274l260 260h139l260 -260l-92 -49l-238 168q-55 -39 -119.5 -84t-119.5 -84z" />
<glyph unicode="&#xfc;" horiz-adv-x="1171" d="M109 1010l16 20l213 33v-639q0 -59 3 -113.5t21.5 -95.5t59.5 -65.5t119 -24.5q53 0 112.5 7t149.5 26v678q-2 43 -4 87t-4 87l18 20l213 33v-866q2 -43 3 -87t3 -87l-16 -21l-223 -33l4 86q-51 -25 -96.5 -40t-87.5 -24t-84 -12.5t-89 -3.5q-152 0 -236.5 80t-88.5 215 v566q-2 43 -4 87t-2 87zM221 1329q0 -45 37 -74.5t95 -29.5q59 0 97 29.5t38 74.5q0 47 -38 78t-95 31q-59 0 -96.5 -31t-37.5 -78zM670 1329q0 -45 37 -74.5t96 -29.5t96 29.5t37 74.5q0 47 -36.5 78t-94.5 31q-59 0 -97 -31t-38 -78z" />
<glyph unicode="&#xfd;" horiz-adv-x="1148" d="M6 1032l86 -112l408 -885l-154 -477h219l117 526l358 838l82 110h-219l-22 -100l-265 -625l-280 627l-19 98h-311zM547 1200l98 -55l326 270l-150 125z" />
<glyph unicode="&#xfe;" horiz-adv-x="1146" d="M238 1487l8 -178v-1698h157v495q33 -23 76 -34t103 -11q117 0 207 36t151 101.5t93 158t32 202.5q0 106 -30.5 196.5t-89 155t-145.5 101.5t-202 37q-66 0 -113 -13.5t-82 -36.5v521l-159 -25zM403 199v716q76 59 187 60q143 0 217 -108.5t74 -307.5q0 -201 -75 -310.5 t-220 -109.5q-111 0 -183 60z" />
<glyph unicode="&#xff;" horiz-adv-x="1148" d="M6 1032l86 -112l408 -885l-154 -477h219l117 526l358 838l82 110h-219l-22 -100l-265 -625l-280 627l-19 98h-311zM237 1329q0 -45 37 -74.5t95 -29.5q59 0 97 29.5t38 74.5q0 47 -38 78t-95 31q-59 0 -96.5 -31t-37.5 -78zM686 1329q0 -45 37 -74.5t96 -29.5t96 29.5 t37 74.5q0 47 -36.5 78t-94.5 31q-59 0 -97 -31t-38 -78z" />
<glyph unicode="&#x152;" horiz-adv-x="2084" d="M117 705q0 -178 46 -314.5t134 -228.5t215 -139.5t289 -47.5q125 0 200 25h984l4 23v108q-78 -4 -172.5 -11t-171.5 -11h-359v598h248l246 -11v113q-25 0 -55.5 -1t-64.5 -2t-66.5 -2t-59.5 -1h-248v522h328l344 -22v108l-4 23h-946q-70 25 -191 24q-160 0 -290 -48 t-221 -142t-140 -235.5t-49 -327.5zM385 723q0 322 111.5 472.5t316.5 150.5q78 0 123 -26t67.5 -79t28.5 -131.5t6 -187.5v-420q0 -106 -6 -184t-28.5 -129.5t-68.5 -76t-126 -24.5q-205 0 -314.5 154.5t-109.5 480.5z" />
<glyph unicode="&#x153;" horiz-adv-x="1878" d="M94 520q0 -268 127 -406.5t367 -138.5q133 0 230 40t163 114q66 -78 165 -116t232 -38q72 0 134.5 12.5t116.5 30t96 38t69 36.5v94q-82 -35 -177 -58.5t-175 -23.5q-39 0 -76 7q-135 27 -198.5 140.5t-67.5 280.5h678q8 35 11 71t3 65q0 82 -26.5 153.5t-79 123.5 t-130 82t-180.5 30q-262 0 -391 -154q-61 74 -156.5 114t-224.5 40q-248 0 -379 -134.5t-131 -402.5zM344 520q0 231 64.5 333.5t187.5 102.5q125 0 188.5 -102.5t63.5 -333.5q0 -233 -64.5 -336.5t-191.5 -103.5q-121 0 -184.5 103.5t-63.5 336.5zM1102 631 q2 160 68.5 242.5t183.5 82.5q115 0 165 -87t52 -224q-66 -4 -117 -7t-117 -7h-235z" />
<glyph unicode="&#x178;" horiz-adv-x="1347" d="M49 1434l84 -113l420 -746v-575h246v596l430 725l90 113h-232l-24 -97l-346 -583l-330 581l-29 99h-309zM360 1636q0 -45 37 -74.5t95 -29.5q59 0 97 29.5t38 74.5q0 47 -38 78t-95 31q-59 0 -96.5 -31t-37.5 -78zM809 1636q0 -45 37 -74.5t96 -29.5t96 29.5t37 74.5 q0 47 -36.5 78t-94.5 31q-59 0 -97 -31t-38 -78z" />
<glyph unicode="&#x2c6;" horiz-adv-x="802" d="M72 1274l260 260h139l260 -260l-92 -49l-238 168q-55 -39 -119.5 -84t-119.5 -84z" />
<glyph unicode="&#x2dc;" horiz-adv-x="833" d="M35 1292l80 -43q29 29 64.5 55.5t76.5 26.5q31 0 68.5 -14t76.5 -33q41 -16 80 -30.5t82 -14.5q45 0 82 16.5t65.5 43t51 57t39.5 61.5l-76 47q-33 -33 -68.5 -60.5t-76.5 -27.5q-27 0 -63 13.5t-75 29.5q-43 18 -85 33.5t-85 15.5q-47 0 -83.5 -15t-65.5 -41 t-50.5 -57.5t-37.5 -62.5z" />
<glyph unicode="&#x2000;" horiz-adv-x="955" />
<glyph unicode="&#x2001;" horiz-adv-x="1911" />
<glyph unicode="&#x2002;" horiz-adv-x="955" />
<glyph unicode="&#x2003;" horiz-adv-x="1911" />
<glyph unicode="&#x2004;" horiz-adv-x="637" />
<glyph unicode="&#x2005;" horiz-adv-x="477" />
<glyph unicode="&#x2006;" horiz-adv-x="318" />
<glyph unicode="&#x2007;" horiz-adv-x="318" />
<glyph unicode="&#x2008;" horiz-adv-x="238" />
<glyph unicode="&#x2009;" horiz-adv-x="382" />
<glyph unicode="&#x200a;" horiz-adv-x="106" />
<glyph unicode="&#x2010;" horiz-adv-x="804" d="M92 510h621v133h-621v-133z" />
<glyph unicode="&#x2011;" horiz-adv-x="804" d="M92 510h621v133h-621v-133z" />
<glyph unicode="&#x2012;" horiz-adv-x="804" d="M92 510h621v133h-621v-133z" />
<glyph unicode="&#x2013;" horiz-adv-x="1110" d="M96 512h918v127h-918v-127z" />
<glyph unicode="&#x2014;" horiz-adv-x="1513" d="M100 512h1313v127h-1313v-127z" />
<glyph unicode="&#x2018;" horiz-adv-x="563" d="M131 1087q0 -53 45 -93t107 -40q66 0 107.5 40t41.5 93q0 41 -24.5 73t-65.5 48l61 248l-106 14q-31 -61 -65.5 -127.5t-65.5 -128.5q-16 -31 -25.5 -63.5t-9.5 -63.5z" />
<glyph unicode="&#x2019;" horiz-adv-x="563" d="M131 1331q0 -41 24.5 -72.5t65.5 -48.5l-61 -247l106 -15q31 61 66 128t65 128q16 31 25.5 63.5t9.5 63.5q0 53 -45 93t-106 40q-66 0 -108 -40t-42 -93z" />
<glyph unicode="&#x201a;" horiz-adv-x="563" d="M131 98q0 -41 24.5 -72.5t65.5 -48.5l-61 -247l106 -15q31 59 66 127t65 127q16 33 25.5 64.5t9.5 64.5q0 53 -45 92t-106 39q-66 0 -108 -38.5t-42 -92.5z" />
<glyph unicode="&#x201c;" horiz-adv-x="972" d="M135 1087q0 -53 45 -93t107 -40q66 0 108.5 40t42.5 93q0 41 -24.5 73t-65.5 48l60 248l-107 14q-29 -61 -64.5 -127.5t-64.5 -128.5q-16 -31 -26.5 -63.5t-10.5 -63.5zM535 1087q0 -53 46 -93t107 -40q66 0 108 40t42 93q0 41 -25 73t-65 48l59 248l-105 14 q-31 -61 -65.5 -127.5t-65.5 -128.5q-16 -31 -26 -63.5t-10 -63.5z" />
<glyph unicode="&#x201d;" horiz-adv-x="972" d="M135 1335q0 -41 24.5 -72.5t65.5 -48.5l-59 -247l104 -15q31 59 66 127t65 129q16 31 26.5 63.5t10.5 63.5q0 53 -46 93t-107 40q-66 0 -108 -39.5t-42 -93.5zM535 1335q0 -41 24.5 -72.5t65.5 -48.5l-60 -247l107 -15q29 59 64.5 127t64.5 129q16 31 26.5 63.5 t10.5 63.5q0 53 -45 93t-107 40q-66 0 -108.5 -39.5t-42.5 -93.5z" />
<glyph unicode="&#x201e;" horiz-adv-x="972" d="M135 98q0 -41 24.5 -72.5t65.5 -48.5l-59 -247l104 -15q31 59 66 127t65 127q16 33 26.5 64.5t10.5 64.5q0 53 -46 92t-107 39q-66 0 -108 -38.5t-42 -92.5zM535 98q0 -41 24.5 -72.5t65.5 -48.5l-60 -247l107 -15q29 59 64.5 127t64.5 127q16 33 26.5 64.5t10.5 64.5 q0 53 -45 92t-107 39q-66 0 -108.5 -38.5t-42.5 -92.5z" />
<glyph unicode="&#x2022;" horiz-adv-x="784" d="M109 739q0 -127 77.5 -204.5t204.5 -77.5t207 76.5t80 205.5q0 63 -21.5 115.5t-59.5 90.5t-89 58.5t-113 20.5q-129 0 -207.5 -78t-78.5 -207z" />
<glyph unicode="&#x2026;" horiz-adv-x="1382" d="M166 98q0 -59 41 -97t102 -38q59 0 102.5 38t43.5 97q0 55 -43 95t-103 40q-61 0 -102 -40t-41 -95zM549 98q0 -59 40 -97t101 -38q59 0 101.5 38t42.5 97q0 55 -42 95t-102 40q-61 0 -101 -40t-40 -95zM928 98q0 -59 40 -97t103 -38q59 0 102.5 38t43.5 97 q0 55 -43.5 95t-102.5 40q-63 0 -103 -40t-40 -95z" />
<glyph unicode="&#x202f;" horiz-adv-x="382" />
<glyph unicode="&#x2039;" horiz-adv-x="665" d="M92 565l328 414l162 -31l-265 -383q63 -92 133 -192.5t132 -192.5l-162 -30z" />
<glyph unicode="&#x203a;" horiz-adv-x="665" d="M84 180l162 -30l327 415l-327 414l-162 -31q61 -90 131 -191.5t133 -191.5z" />
<glyph unicode="&#x205f;" horiz-adv-x="477" />
<glyph unicode="&#x20ac;" horiz-adv-x="1331" d="M18 514h150q18 -147 68.5 -249.5t128 -167t182 -93.5t233.5 -29q70 0 138.5 8.5t130 21.5t116 27.5t92.5 26.5l5 19l-33 270h-142l-45 -194q-29 -16 -74.5 -29.5t-111.5 -13.5q-184 0 -283.5 99t-132.5 304h299l52 143h-365v129h313l52 144h-353q29 209 127.5 309 t278.5 100q59 0 108 -12t90 -31l45 -194h142l33 270l-5 17q-84 27 -181 48t-212 21q-281 0 -459 -126t-227 -402h-160v-144h142v-129h-142v-143z" />
<glyph unicode="&#x2122;" horiz-adv-x="2185" d="M123 1247l4 174l14 13h709l14 -9l4 -178h-86l-28 109l-99 6h-84v-715l95 -18v-51h-340v51l94 18v715h-84l-98 -6l-29 -109h-86zM961 575h299v52l-99 18v612l305 -688h66l280 719v-643l-94 -18v-52h344v52l-100 18v721l100 16v52h-284l-246 -605l-277 605h-294v-52 l100 -16v-721l-100 -18v-52z" />
<glyph unicode="&#x25fc;" horiz-adv-x="1034" d="M0 0v1034h1034v-1034h-1034z" />
<glyph unicode="&#xfb01;" horiz-adv-x="1236" d="M35 924v77l180 27v201q0 72 25.5 126t71.5 89t109.5 52t139.5 17q45 0 105.5 -7t121.5 -27v-74h-196q-74 0 -113 -33t-39 -106v-234h289q39 4 85 7t92 6.5t91 7.5t84 6v-1059h-223v924h-420v-924h-223v924h-180zM834 1389q0 -57 39.5 -93t99.5 -36q59 0 99 35.5t40 93.5 q0 57 -40 95t-99 38t-99 -38t-40 -95z" />
<glyph unicode="&#xfb02;" horiz-adv-x="1212" d="M35 924v77l180 27v201q0 72 25.5 126t71.5 89t109.5 52t139.5 17h205q70 6 158 14.5t157 14.5v-1542h-223v1405h-266q-74 0 -113 -33t-39 -106v-234h238v-108h-240v-924h-223v924h-180z" />
</font>
</defs>
</svg>
