<?xml version="1.0" standalone="no"?>
<!DOCTYPE svg PUBLIC "-//W3C//DTD SVG 1.1//EN" "http://www.w3.org/Graphics/SVG/1.1/DTD/svg11.dtd" >
<svg xmlns="http://www.w3.org/2000/svg">
<metadata>
This is a custom SVG webfont generated by Font Squirrel.
Copyright   : Copyright c 2009 by  2009 Designed by Svetoslav Simov  Fontfabric Inc All rights reserved
Designer    : Svetoslav Simov
Foundry     :  2009 Designed by Svetoslav Simov  Fontfabric Inc
</metadata>
<defs>
<font id="UniSansLightRegular" horiz-adv-x="1034" >
<font-face units-per-em="2048" ascent="1548" descent="-500" />
<missing-glyph horiz-adv-x="614" />
<glyph unicode=" "  horiz-adv-x="614" />
<glyph unicode="&#x09;" horiz-adv-x="614" />
<glyph unicode="&#xa0;" horiz-adv-x="614" />
<glyph unicode="!" horiz-adv-x="552" d="M172 69.5q0 32.5 22.5 55t55.5 22.5t55.5 -22.5t22.5 -55t-22.5 -55t-55.5 -22.5t-55.5 22.5t-22.5 55zM209 268v1184h80v-1184h-80z" />
<glyph unicode="&#x22;" horiz-adv-x="544" d="M145 1061v389h82q-6 -76 -18 -195.5t-16 -193.5h-48zM334 1061v389h80l-33 -389h-47z" />
<glyph unicode="#" horiz-adv-x="1464" d="M68 475l14 70h332l108 370h-372l16 72h379l135 463h80l-137 -463h378l136 463h82l-140 -463h332l-20 -72h-336l-107 -370h377q-4 -16 -10 -38t-8 -32h-383q-18 -66 -66.5 -231.5t-71.5 -243.5h-77l139 475h-381q-18 -66 -66.5 -231.5t-70.5 -243.5h-78l139 475h-323z M492 545h378l109 370h-379z" />
<glyph unicode="$" horiz-adv-x="1165" d="M78 248l74 31q45 -88 151.5 -142.5t237.5 -64.5v651q-84 18 -137.5 32.5t-121 44t-104.5 67.5t-62.5 98.5t-21.5 138.5q6 156 134 250t313 108v205h59v-205q332 -6 442 -227q-16 -8 -37.5 -15.5t-33.5 -13.5q-88 162 -348 178h-23v-598q109 -18 180.5 -40.5t148.5 -67.5 t112.5 -124t29.5 -192q-14 -158 -149.5 -257t-321.5 -111v-207h-59v207q-160 12 -284 75.5t-179 178.5zM172 1100q-8 -137 86 -199.5t283 -103.5v587q-152 -12 -256.5 -86.5t-112.5 -197.5zM600 72q156 12 267.5 90t123.5 200q6 74 -12 129.5t-46 88t-85 59.5t-101.5 39 t-121.5 29l-25 4v-639z" />
<glyph unicode="%" horiz-adv-x="1488" d="M84 1079q0 174 78 270.5t205 96.5q133 0 207.5 -97.5t74.5 -273.5q0 -170 -78.5 -269t-203.5 -99q-135 0 -209 96t-74 276zM164 1079q0 -156 49 -225.5t154 -69.5q205 0 204 291q0 295 -206 295q-201 0 -201 -291zM174 -76l1024 1620l66 -43l-1020 -1618zM805 373 q0 178 76.5 272t205.5 94q131 0 206 -98t75 -272q0 -168 -79 -267.5t-202 -99.5q-137 0 -209.5 95.5t-72.5 275.5zM885 373q0 -156 49 -225.5t156 -69.5q203 0 202 291q0 297 -207 297q-200 0 -200 -293z" />
<glyph unicode="&#x26;" horiz-adv-x="1251" d="M106 399q0 139 85 230.5t245 185.5q-59 70 -88 109t-59.5 103.5t-30.5 119.5q0 137 99.5 222t238.5 85q121 0 211 -82t90 -203q0 -68 -24.5 -123t-73.5 -99t-93 -71.5t-116 -64.5l-33 -18l395 -402l119 201l62 -31l-132 -215l238 -272h-96l-180 202q-98 -131 -202 -197.5 t-241 -66.5q-176 0 -295 106.5t-119 280.5zM186 403q0 -147 93.5 -233t257.5 -86q203 0 372 244l-10 12l-412 424q-70 -41 -108.5 -67.5t-90.5 -72.5t-77 -100.5t-25 -120.5zM338 1151q0 -51 32.5 -114.5t58.5 -95.5t79 -93q6 4 40 20.5t44 22.5t41 22.5t42 25.5t36.5 27.5 t37 32t28 34t23.5 39t13 42t6 47.5q0 96 -64.5 157.5t-164.5 61.5q-104 0 -178 -65.5t-74 -163.5z" />
<glyph unicode="'" horiz-adv-x="380" d="M143 1059v391h80q-4 -72 -10 -193.5t-10 -197.5h-60z" />
<glyph unicode="(" horiz-adv-x="532" d="M139 699.5q0 492.5 271 881.5l61 -45q-248 -362 -249 -835.5t259 -843.5q-6 -4 -63 -39q-279 389 -279 881.5z" />
<glyph unicode=")" horiz-adv-x="520" d="M39 1516q6 4 63 38q270 -389 275.5 -894.5t-268.5 -905.5l-66 43q258 401 251 864.5t-255 854.5z" />
<glyph unicode="*" horiz-adv-x="847" d="M70 1182q8 31 18 57l309 -100l-4 313h64l-4 -313q33 10 139 44t162 52l18 -59l-305 -95l199 -260q-18 -14 -48 -39l-196 265q-29 -41 -95.5 -132.5t-93.5 -130.5q-10 6 -25 19.5t-22 17.5l197 264z" />
<glyph unicode="+" horiz-adv-x="1214" d="M111 659v78h473v461h75v-461h455v-78h-455v-464h-75v464h-473z" />
<glyph unicode="," horiz-adv-x="499" d="M109 -262l122 377h99q-25 -76 -74 -190.5t-74 -186.5h-73z" />
<glyph unicode="-" horiz-adv-x="735" d="M78 575v78h579v-78h-579z" />
<glyph unicode="." horiz-adv-x="448" d="M141 71.5q0 32.5 22.5 55.5t55.5 23t55.5 -23t22.5 -55.5t-22.5 -55t-55.5 -22.5t-55.5 22.5t-22.5 55z" />
<glyph unicode="/" horiz-adv-x="757" d="M45 -27l608 1526l68 -22q-102 -256 -302 -762t-302 -764q-16 6 -39 12t-33 10z" />
<glyph unicode="0" horiz-adv-x="1230" d="M115 375v688q0 193 152.5 297t350.5 104q197 0 349.5 -104.5t152.5 -296.5v-688q0 -129 -77.5 -224.5t-188.5 -136.5t-235.5 -41t-236.5 41t-189.5 135.5t-77.5 225.5zM195 375q0 -113 67.5 -188.5t158.5 -104.5t197 -29q104 0 195.5 29t159 104.5t67.5 188.5v688 q0 164 -127 242.5t-295 78.5q-170 0 -296.5 -78.5t-126.5 -242.5v-688z" />
<glyph unicode="1" horiz-adv-x="641" d="M49 1126l307 326h95v-1452h-78v1362l-269 -283q-14 10 -30.5 25.5t-24.5 21.5z" />
<glyph unicode="2" horiz-adv-x="1116" d="M70 66l704 700q156 152 156 301q0 129 -104.5 217t-274.5 94q-131 4 -230.5 -50t-152.5 -161q-18 8 -41 18.5t-29 14.5q61 137 172 195.5t283 60.5q201 -2 328 -108.5t127 -282.5q0 -178 -179 -352l-634 -633h819v-80h-916l-15 35t-13 31z" />
<glyph unicode="3" horiz-adv-x="1155" d="M66 219l73 35q51 -94 163 -144.5t247 -50.5q174 0 299 87t125 245q0 178 -100.5 271.5t-280.5 91.5h-100v69h100q143 0 229 69t86 208q0 141 -108.5 216t-257.5 75q-111 0 -205 -42t-146 -122l-63 37q53 98 167 149t251 51q182 0 310 -93t128 -271q0 -227 -182 -307 q252 -90 252 -404q-2 -131 -77 -226t-186.5 -139t-242.5 -44q-160 0 -286.5 59t-194.5 180z" />
<glyph unicode="4" horiz-adv-x="1101" d="M25 469l798 981h105v-981h121v-70h-121v-399h-80v399h-780zM115 469h735l2 899z" />
<glyph unicode="5" horiz-adv-x="1185" d="M98 221l74 35q51 -90 157.5 -138t233.5 -48q172 0 301 97t129 261v78q0 164 -121.5 259t-293.5 95q-215 0 -398 -90q-4 0 -18.5 -2t-20.5 -2v664h856v-80h-776v-482q186 76 357 74q125 -2 234.5 -49t184 -148.5t76.5 -236.5v-80q-2 -201 -154.5 -320.5t-355.5 -119.5 q-332 0 -465 233z" />
<glyph unicode="6" horiz-adv-x="1265" d="M129 391v668q0 190 153.5 296.5t364.5 104.5q154 0 279 -57t186 -168l-72 -37q-51 88 -159.5 136t-233.5 48q-180 0 -309 -85t-129 -240v-361q137 199 438 199q209 -2 358.5 -107.5t149.5 -293.5v-103q0 -188 -149.5 -294.5t-358.5 -106.5q-209 -2 -362.5 104.5 t-155.5 296.5zM209 393q0 -156 129 -240.5t309 -84.5q176 0 302 86t126 239v99q0 154 -126 239.5t-302 85.5q-180 0 -309 -85t-129 -240v-99z" />
<glyph unicode="7" horiz-adv-x="1005" d="M74 1374v76h880l33 -68l-768 -1382h-90l762 1374h-817z" />
<glyph unicode="8" horiz-adv-x="1185" d="M70 391q0 145 71.5 246.5t206.5 142.5q-104 35 -157.5 123t-53.5 197q2 174 130 271t304 97h39q176 0 305 -97t129 -271q0 -100 -48 -187.5t-152 -124.5q133 -47 201.5 -150t68.5 -247q-4 -197 -153.5 -310.5t-350.5 -113.5h-39q-201 0 -350 113.5t-151 310.5zM147 393 q0 -113 67 -195.5t161 -118.5t196 -36h39q102 0 196.5 36t161 119t66.5 195q0 352 -424 352h-39q-424 0 -424 -352zM213 1100q0 -281 358 -281h39q358 0 359 281q0 141 -105.5 218t-253.5 77h-39q-147 0 -252.5 -77t-105.5 -218z" />
<glyph unicode="9" horiz-adv-x="1247" d="M92 956v111q0 188 149.5 294.5t358.5 106.5q209 2 362.5 -104.5t155.5 -296.5v-686q0 -190 -153.5 -297t-364.5 -104q-154 0 -278.5 57t-186.5 168l74 37q51 -88 158.5 -136.5t232.5 -48.5q180 0 309 85t129 241v356q-139 -184 -438 -184q-209 2 -358.5 107.5 t-149.5 293.5zM172 958q0 -154 126 -239.5t302 -85.5q180 0 309 85t129 240v107q0 156 -129 241t-309 85q-176 0 -302 -86t-126 -240v-107z" />
<glyph unicode=":" horiz-adv-x="491" d="M164 117q0 33 22.5 55.5t55 22.5t55 -22.5t22.5 -55.5t-22.5 -55.5t-55 -22.5t-55 22.5t-22.5 55.5zM164 891q0 33 22.5 55.5t55 22.5t55 -22.5t22.5 -55.5t-22.5 -55.5t-55 -22.5t-55 22.5t-22.5 55.5z" />
<glyph unicode=";" horiz-adv-x="507" d="M115 -217l102 340h117l-139 -340h-80zM174 860q0 33 22.5 55.5t55.5 22.5t55.5 -22.5t22.5 -55.5t-22.5 -55.5t-55.5 -22.5t-55.5 22.5t-22.5 55.5z" />
<glyph unicode="&#x3c;" horiz-adv-x="952" d="M121 584v73l680 406v-88l-611 -354q20 -12 258 -147.5t353 -203.5v-86z" />
<glyph unicode="=" horiz-adv-x="1146" d="M180 444v72h793v-72h-793zM180 727v70h793v-70h-793z" />
<glyph unicode="&#x3e;" horiz-adv-x="983" d="M174 184v82l610 355l-610 354v88l680 -406v-73z" />
<glyph unicode="?" horiz-adv-x="962" d="M63 1298q135 156 359 156q180 0 311 -105.5t129 -293.5q-2 -180 -121.5 -289t-298.5 -141q-2 -43 -8 -188.5t-8 -205.5h-59l-13 459q180 6 307 105.5t125 261.5q-2 154 -110.5 237.5t-257.5 83.5q-78 0 -165 -36.5t-144 -92.5zM322 65.5q0 32.5 22.5 55t54.5 22.5 q31 0 52.5 -22.5t21.5 -55t-21.5 -54t-52.5 -21.5q-33 0 -55 21.5t-22 54z" />
<glyph unicode="@" horiz-adv-x="1562" d="M102 616q0 303 210 514t513 211q285 0 475.5 -166.5t190.5 -414.5q0 -229 -149.5 -406.5t-299.5 -167.5q-55 2 -77.5 40t-22.5 120q-57 -76 -136 -118t-153 -42q-119 0 -184.5 78t-65.5 197q0 139 53.5 266t160 213t239.5 86q76 0 144.5 -52t82.5 -163q6 14 30 82t34 92 h70l-187 -555q-25 -74 -24 -102q0 -74 71 -74q113 0 229.5 166t116.5 340q0 227 -176 373.5t-418 146.5q-287 0 -473 -195.5t-186 -468.5q0 -156 71.5 -296t190.5 -231t274.5 -127t323.5 18q16 -35 29 -56q-147 -45 -286.5 -37.5t-261.5 70.5t-213 158.5t-143.5 226.5 t-52.5 274zM473 465q0 -94 52.5 -153.5t138.5 -59.5q141 0 254.5 164t113.5 315q0 229 -184 230q-172 2 -273.5 -159t-101.5 -337z" />
<glyph unicode="A" horiz-adv-x="1267" d="M41 0l530 1479h117l533 -1479h-86l-183 504h-649q-27 -78 -88 -252t-88 -252h-86zM332 584h594l-297 835z" />
<glyph unicode="B" horiz-adv-x="1290" d="M176 -2v1454h545q168 0 280.5 -96t112.5 -264q0 -92 -37 -174t-112 -125l-60 -25l68 -14q211 -82 211 -351v-10q-4 -207 -129 -301t-336 -94h-543zM256 78h465h14q369 0 369 317q0 336 -374 336h-9h-465v-653zM256 803h465q143 0 230 71.5t87 215.5q0 139 -89 213.5 t-228 74.5h-465v-575z" />
<glyph unicode="C" horiz-adv-x="1179" d="M115 403v644q0 197 157.5 308t370.5 111q154 0 282 -58t187 -171q-10 -6 -33.5 -18.5t-38.5 -18.5q-53 88 -163.5 137t-239.5 49q-178 0 -310 -90t-132 -249v-644q0 -160 132 -250t310 -90q127 0 238.5 49.5t166.5 137.5q10 -4 23.5 -11.5t24.5 -12.5l22 -11 q-61 -113 -191 -172t-284 -59q-211 0 -366.5 111t-155.5 308z" />
<glyph unicode="D" horiz-adv-x="1269" d="M182 0v1450h504q211 0 346 -100.5t135 -302.5v-646q0 -201 -135 -301t-346 -100h-504zM262 80h424q178 0 289.5 79t111.5 242v646q0 164 -111.5 243.5t-289.5 79.5h-424v-1290z" />
<glyph unicode="E" horiz-adv-x="1171" d="M182 2v1448h877v-80h-797v-604h735v-82h-735v-602h797v-80h-877z" />
<glyph unicode="F" horiz-adv-x="1118" d="M182 2v1448h865v-80h-785v-633h707v-80h-707v-655h-80z" />
<glyph unicode="G" horiz-adv-x="1337" d="M111 412v632q0 197 155.5 308.5t366.5 111.5q152 0 279.5 -59t187.5 -172q-10 -6 -34 -18.5t-38 -18.5q-51 94 -159.5 141t-239.5 47q-178 0 -308.5 -89t-130.5 -251v-632q0 -164 131.5 -254t311.5 -90t312 90t132 254v215h-444v80h524v-295q0 -201 -155.5 -313.5 t-368.5 -112.5t-367.5 112.5t-154.5 313.5z" />
<glyph unicode="H" horiz-adv-x="1409" d="M180 0v1450h80v-686h887v686h80v-1450h-80v684h-887v-684h-80z" />
<glyph unicode="I" horiz-adv-x="475" d="M184 0v1448h80v-1448h-80z" />
<glyph unicode="J" horiz-adv-x="1185" d="M25 299q18 2 40.5 8t34.5 8q33 -125 149 -193.5t259 -68.5q168 0 292 91.5t124 252.5v973h-484v80h564v-1053q0 -197 -149.5 -307t-352.5 -110q-172 0 -305 82.5t-172 236.5z" />
<glyph unicode="K" horiz-adv-x="1245" d="M182 2v1448h80v-846q135 131 420 423t420 423h98l-678 -698q106 -115 331.5 -369t344.5 -381h-100l-633 692l-203 -202v-490h-80z" />
<glyph unicode="L" horiz-adv-x="1036" d="M184 2v1450h80v-1370h725v-80h-805z" />
<glyph unicode="M" horiz-adv-x="1632" d="M176 0v1450h139l502 -1139l504 1139h135v-1450h-80v1389l-516 -1170h-86l-518 1172v-1391h-80z" />
<glyph unicode="N" horiz-adv-x="1411" d="M182 0v1450h101l839 -1350v1350h80v-1450h-117l-823 1327v-1327h-80z" />
<glyph unicode="O" horiz-adv-x="1396" d="M143 403v644q0 135 82 234t205 144t266.5 45t266 -45t205.5 -144t83 -234v-644q0 -135 -82 -234t-205.5 -145.5t-267 -46.5t-266.5 46.5t-205 145.5t-82 234zM223 403q0 -164 140.5 -255t333 -91t332.5 91.5t142 254.5v644q0 170 -140 258t-337 88q-195 -2 -333 -90.5 t-138 -255.5v-644z" />
<glyph unicode="P" horiz-adv-x="1261" d="M184 2v1448h527q145 -2 252.5 -68.5t155.5 -164.5q49 -100 49 -217q0 -111 -47 -206q-48 -97 -154.5 -164t-253.5 -67h-449v-561h-80zM264 643h447q123 0 212 54.5t129 133.5q39 78 39 170q0 97 -42 180q-41 81 -129.5 135t-208.5 54h-447v-727z" />
<glyph unicode="Q" horiz-adv-x="1398" d="M145 416v618q0 135 82 234.5t205 144.5t266.5 45t266 -45t204.5 -144.5t82 -234.5v-618q0 -152 -100 -260l-12 -13q14 -20 51 -64t49 -59q-8 -4 -65 -40l-95 116q-172 -106 -381 -106q-143 0 -266 46t-205 145.5t-82 234.5zM225 416q-2 -164 139.5 -255t333.5 -91 q190 0 334 90l-123 162l62 43l119 -156q82 102 81 207v618q0 170 -139 258t-336 88q-195 -2 -333 -90t-138 -256v-618z" />
<glyph unicode="R" horiz-adv-x="1277" d="M182 0v1450h527q207 0 333.5 -101.5t131.5 -306.5q0 -221 -121 -314t-342 -93h-47q80 -100 247.5 -321.5t239.5 -313.5h-94l-488 635h-307v-635h-80zM262 705h449q197 0 290 77.5t93 257.5q0 330 -370 330h-13h-449v-665z" />
<glyph unicode="S" horiz-adv-x="1218" d="M117 233l71 33q53 -98 173 -153.5t255 -55.5q160 0 278 74t136 223q1 10 1 20q0 60 -21 109q-25 57 -61 91t-103.5 63t-116.5 41t-133 31q-96 20 -170 46.5t-147.5 71.5t-111.5 120q-34 67 -34 153v18q6 168 146.5 260t334.5 92q158 0 292 -62t194 -181q-16 -8 -38 -16.5 t-34 -14.5q-49 96 -167 149.5t-247 53.5q-166 0 -279.5 -68.5t-123.5 -214.5q-1 -14 -1 -27q0 -122 101 -193q113 -79 307 -118q109 -23 185 -47t155.5 -71.5t118.5 -123.5q34 -66 34 -155q0 -14 -1 -29q-8 -174 -154.5 -272t-343.5 -98q-154 0 -294 65t-201 186z" />
<glyph unicode="T" horiz-adv-x="1128" d="M41 1372v80h1046v-80h-483v-1370h-80v1370h-483z" />
<glyph unicode="U" horiz-adv-x="1400" d="M176 418v1032h80v-1032q0 -166 131 -258t311.5 -92t312.5 92t132 258v1032h80v-1032q0 -203 -156 -317.5t-369 -114.5t-367.5 114.5t-154.5 317.5z" />
<glyph unicode="V" horiz-adv-x="1243" d="M25 1450h88l505 -1415q74 207 246 691t256 722h86l-522 -1473h-129z" />
<glyph unicode="W" horiz-adv-x="1892" d="M35 1450h82l395 -1419h8l381 1208h84l383 -1208h8l398 1419h81l-425 -1468h-119l-367 1159q-47 -152 -178 -560.5t-191 -598.5h-118z" />
<glyph unicode="X" horiz-adv-x="1206" d="M66 0l483 723l-479 725h90l436 -655q74 109 222.5 336t209.5 319h94l-479 -725q70 -102 233.5 -351t247.5 -372h-96l-432 666l-434 -666h-96z" />
<glyph unicode="Y" horiz-adv-x="1171" d="M57 1448h93l436 -803l434 803h94l-489 -875v-573h-80v573z" />
<glyph unicode="Z" horiz-adv-x="1153" d="M57 47l920 1329h-877v74h947l43 -45l-922 -1331h893v-74h-969z" />
<glyph unicode="[" horiz-adv-x="481" d="M160 -252v1798h266v-65h-188v-1667h188v-66h-266z" />
<glyph unicode="\" horiz-adv-x="741" d="M-4 1528l70 22l641 -1603l-72 -25z" />
<glyph unicode="]" horiz-adv-x="430" d="M35 -193h184v1668h-184v71h266v-1814h-266v75z" />
<glyph unicode="^" horiz-adv-x="1169" d="M139 911l381 539h74q66 -90 197 -269.5t196 -269.5h-92l-338 480q-61 -90 -187 -276.5t-139 -203.5h-92z" />
<glyph unicode="_" horiz-adv-x="1024" d="M20 -55h984v-74h-984v74z" />
<glyph unicode="`" horiz-adv-x="430" d="M51 1448h117l141 -225h-78z" />
<glyph unicode="a" d="M113 328q2 164 114.5 247.5t278.5 83.5q164 0 297 -59v164q0 121 -91 181.5t-223 60.5q-152 0 -264 -105q-8 8 -22.5 25.5t-22.5 23.5q119 125 322 125q154 0 264.5 -82t110.5 -229v-723q-179 -60 -387 -60q-13 0 -27 1q-150 2 -250 97t-100 249zM184 328q0 -131 80 -205 t205 -76h31q146 0 286 35l17 6v442q-154 61 -301 62q-137 0 -226.5 -62.5t-91.5 -201.5z" />
<glyph unicode="b" horiz-adv-x="1026" d="M141 41v1409h74v-446q160 72 309 71h7q149 0 262 -86q115 -88 114 -237v-435q0 -154 -112.5 -242.5t-264.5 -92.5q-201 0 -389 59zM215 98q133 -45 315 -45q121 0 212.5 71t88.5 189v439q2 119 -88 183t-217 66q-133 0 -299 -73l-12 -8v-822z" />
<glyph unicode="c" horiz-adv-x="905" d="M119 309v441q0 154 113.5 238.5t267.5 84.5q104 0 194 -40t140 -115l-60 -39q-82 121 -274 120q-125 0 -216 -63.5t-91 -181.5v-445q0 -121 90 -185.5t217 -64.5q96 0 177 41t114 115l67 -33q-43 -92 -142.5 -144t-215.5 -52q-154 0 -267.5 84.5t-113.5 238.5z" />
<glyph unicode="d" horiz-adv-x="1046" d="M137 307v443q0 150 115 237q112 86 261 86h7q160 0 309 -67v444h74v-1403q-201 -63 -389 -63q-154 4 -265.5 87.5t-111.5 235.5zM213 307q-2 -121 87 -186.5t214 -65.5q170 0 315 49v828q-154 68 -311 67q-127 -2 -217 -65.5t-88 -181.5v-445z" />
<glyph unicode="e" horiz-adv-x="1005" d="M123 311v434q0 154 113.5 239t269.5 85q154 0 267.5 -85t113.5 -239v-266h-688v-168q-2 -121 88 -184.5t219 -63.5q201 0 278 134l68 -35q-45 -86 -139.5 -130t-206.5 -44q-156 0 -269.5 84.5t-113.5 238.5zM199 547h614v198v5q0 119 -91 183t-216 64q-129 0 -219 -64.5 t-88 -182.5v-203z" />
<glyph unicode="f" horiz-adv-x="536" d="M150 0v1139q0 152 88 234.5t229 88.5v-73q-113 -4 -178.5 -70t-65.5 -180v-258h230v-74h-230v-807h-73z" />
<glyph unicode="g" horiz-adv-x="1026" d="M129 307v457q0 150 109.5 233.5t261.5 85.5q156 0 385 -77v-1053q0 -154 -109.5 -233.5t-265.5 -79.5q-203 0 -322 112l45 45q92 -74 230 -88q25 -3 49 -2q107 0 195 51q106 63 106 193v110q-154 -76 -305 -75h-7q-149 0 -259 85q-113 86 -113 236zM203 307 q-2 -119 86 -182.5t215 -67.5q131 2 297 70l12 10v813q-143 61 -313 62q-123 0 -211 -64.5t-86 -181.5v-459z" />
<glyph unicode="h" horiz-adv-x="1081" d="M162 0v1450h74v-485q162 76 307 75q7 0 13 1q145 0 254 -85q114 -88 114 -237v-719h-74v719q0 119 -90 182.5t-215 65.5q-154 0 -309 -64v-903h-74z" />
<glyph unicode="i" horiz-adv-x="440" d="M145 1364q0 29 21.5 50.5t50.5 21.5t50.5 -21.5t21.5 -50.5t-21.5 -50.5t-50.5 -21.5t-50.5 21.5t-21.5 50.5zM184 -2v1065h74v-1065h-74z" />
<glyph unicode="j" horiz-adv-x="448" d="M-43 -299q231 6 231 254v1108h74v-1108q0 -154 -81 -238t-224 -90v74zM154 1374.5q0 28.5 21.5 50t50 21.5t50 -21.5t21.5 -50t-21.5 -50t-50 -21.5t-50 21.5t-21.5 50z" />
<glyph unicode="k" horiz-adv-x="966" d="M160 0v1448h73v-995l590 606h90l-458 -475l458 -584h-88l-422 530l-170 -170v-360h-73z" />
<glyph unicode="l" horiz-adv-x="475" d="M152 309v1141h73v-1141q0 -242 209 -241v-74q-282 10 -282 315z" />
<glyph unicode="m" horiz-adv-x="1683" d="M166 0v999q119 86 332 86q223 0 340 -147q66 80 136 107.5t169 31.5q10 0 20 1q146 0 248 -84q109 -89 109 -251v-743h-76v739q1 11 1 21q0 143 -133 210q-81 40 -164 40q-62 0 -126 -23q-147 -53 -150 -194v-793h-71v793q-2 106 -109 163q-98 53 -215 53h-21 q-130 -5 -214 -59v-950h-76z" />
<glyph unicode="n" horiz-adv-x="1089" d="M164 0v1006q223 78 387 77q152 -4 262.5 -89t110.5 -234v-760h-74v760q0 119 -89 183.5t-210 64.5q-170 0 -313 -62v-946h-74z" />
<glyph unicode="o" horiz-adv-x="1030" d="M133 309v441q0 154 113.5 238.5t269.5 86.5q156 -2 268.5 -87t112.5 -238v-441q0 -154 -112.5 -238.5t-268.5 -86.5q-156 2 -269.5 86.5t-113.5 238.5zM207 309q0 -123 92 -187.5t217 -64.5q123 0 215 64.5t92 187.5v441q0 123 -91 186t-216 63t-217 -63.5t-92 -185.5 v-441z" />
<glyph unicode="p" d="M143 -371v1387q190 61 389 61q158 -2 267.5 -83t109.5 -240v-441q0 -152 -114 -240q-112 -87 -262 -87h-7q-182 4 -309 63v-420h-74zM217 127q158 -66 311 -66q125 2 216.5 67t89.5 181v445q2 123 -86.5 185t-215.5 62q-193 0 -315 -43v-831z" />
<glyph unicode="q" d="M127 315v441q0 152 111.5 236.5t265.5 86.5q121 0 194.5 -13t194.5 -52v-1385h-74v428q-150 -70 -309 -73h-7q-149 0 -261 89q-115 90 -115 242zM203 315q-2 -121 88 -185t217 -67q166 0 311 80v820q-119 41 -315 41q-123 0 -213 -65t-88 -179v-445z" />
<glyph unicode="r" horiz-adv-x="628" d="M147 0v745q0 125 79 209t202 109q26 6 66 6q32 0 71 -4v-72q-32 3 -59 4q-41 0 -72 -8q-92 -23 -152.5 -84t-60.5 -160v-745h-74z" />
<glyph unicode="s" horiz-adv-x="864" d="M72 180l59 39q121 -164 310 -164h14q98 2 180 62q80 58 80 160q0 60 -23.5 102.5t-65.5 67t-82 38t-93 23.5q-72 12 -126.5 29.5t-109.5 48t-85 84t-30 125.5q0 152 123 227q99 61 216 61q29 0 59 -4q152 -18 235 -110l-45 -54q-70 78 -191 97q-29 4 -58 4 q-89 0 -164 -44q-99 -58 -103 -177q0 -47 22.5 -85t46 -57.5t74 -37t73 -21.5t75.5 -14q319 -57 321 -297q0 -135 -97 -213t-232 -82q-9 0 -18 -1q-107 0 -199 47q-100 50 -166 146z" />
<glyph unicode="t" horiz-adv-x="563" d="M158 324v1126h73v-389h230v-74h-230v-663q0 -133 83 -193.5t198 -60.5v-72q-156 0 -255 80t-99 246z" />
<glyph unicode="u" horiz-adv-x="1058" d="M152 305v756h73v-756q0 -119 89 -183.5t210 -64.5q170 0 314 62v942h73v-1002q-223 -78 -387 -77q-152 4 -262 88.5t-110 234.5z" />
<glyph unicode="v" horiz-adv-x="956" d="M47 1061h80l354 -1018l355 1018h77l-378 -1075h-109q-61 174 -190.5 537.5t-188.5 537.5z" />
<glyph unicode="w" horiz-adv-x="1458" d="M47 1061h76l303 -1028l246 1028h112l250 -1024q227 772 301 1024h76l-317 -1067h-125l-240 1018l-244 -1018h-118z" />
<glyph unicode="x" horiz-adv-x="923" d="M63 0l347 530l-347 531h93l303 -479l303 479h90l-344 -531l344 -530h-90l-303 479l-305 -479h-91z" />
<glyph unicode="y" horiz-adv-x="1062" d="M150 307v752h73v-752q-2 -119 87 -182.5t216 -67.5q131 2 297 70l13 10v922h71v-1106q0 -154 -109.5 -233.5t-265.5 -79.5q-203 0 -321 112l45 45q92 -74 229 -88q25 -3 50 -2q107 0 194 51q106 63 107 193v110q-154 -76 -306 -75h-7q-149 0 -260 85q-113 86 -113 236z " />
<glyph unicode="z" horiz-adv-x="894" d="M49 57l676 934h-637v70h709l30 -49l-677 -940h667v-72h-729z" />
<glyph unicode="{" horiz-adv-x="587" d="M123 608v62q145 25 145 334v296q0 121 37 182.5t141 61.5h62v-69h-55q-72 0 -90.5 -39t-18.5 -138v-299q2 -158 -39 -245.5t-90 -108.5q127 -92 127 -362v-301q0 -84 24.5 -122t96.5 -38h45v-72h-49q-193 0 -193 227v299q0 307 -143 332z" />
<glyph unicode="|" horiz-adv-x="471" d="M199 -344v1888h73v-1888h-73z" />
<glyph unicode="}" horiz-adv-x="571" d="M70 -178h45q72 0 96.5 38t24.5 122v301q0 270 126 362q-49 20 -90 108.5t-39 245.5v299q0 68 -5 100t-28.5 54.5t-74.5 22.5h-55v69h61q104 0 141 -61.5t37 -182.5v-296q0 -309 146 -334v-62q-143 -25 -144 -332v-299q0 -227 -192 -227h-49v72z" />
<glyph unicode="~" horiz-adv-x="1103" d="M166 569q90 156 229 156q76 0 195 -80q96 -61 147 -61q96 0 185 131l39 -35q-82 -160 -224 -160q-84 0 -184 68q-6 4 -22.5 14t-23.5 15.5t-22.5 13.5t-24.5 12t-21.5 8t-25 6t-24.5 2q-96 0 -184 -129q-10 8 -21.5 20.5t-17.5 18.5z" />
<glyph unicode="&#xa1;" horiz-adv-x="569" d="M201 983q0 33 22.5 55.5t55 22.5t55 -22.5t22.5 -55.5t-22.5 -55.5t-55 -22.5t-55 22.5t-22.5 55.5zM238 -434v1153h81v-1153h-81z" />
<glyph unicode="&#xa2;" horiz-adv-x="942" d="M123 315v433q0 139 99.5 223t244.5 98v188h63v-186q209 -12 306 -156l-60 -38q-70 104 -246 120v-931q209 18 265 155l65 -33q-37 -86 -126 -136t-204 -60v-187h-63v187q-145 16 -244.5 100t-99.5 223zM197 315q-2 -106 74.5 -168.5t195.5 -78.5v927 q-119 -16 -195.5 -78.5t-74.5 -164.5v-437z" />
<glyph unicode="&#xa3;" horiz-adv-x="937" d="M61 0v68h213v659h-213v70h213v276q0 158 93.5 276.5t298.5 118.5q135 0 247 -92l-51 -51q-84 74 -203 74q-154 0 -231.5 -96.5t-77.5 -223.5v-282h338v-70h-338v-659h502v-68h-791z" />
<glyph unicode="&#xa4;" horiz-adv-x="1148" d="M92 725q0 182 127 322q-16 16 -55 56t-58 58l44 45l108 -112q150 117 324 116q176 0 325 -116q14 14 54 57t53 55l43 -45l-111 -114q125 -137 125 -322q0 -182 -127 -322q18 -16 59 -57t60 -57l-47 -45l-111 112q-147 -115 -323 -114q-188 0 -330 110q-14 -14 -52 -55 t-50 -53l-44 45l107 110q-121 133 -121 326zM162 723q0 -174 123 -296t293 -122q172 0 294.5 122t122.5 296q0 176 -122.5 299t-294.5 123q-170 0 -293 -123t-123 -299z" />
<glyph unicode="&#xa5;" horiz-adv-x="1003" d="M-45 1452h92l436 -823q135 250 443 823h96l-463 -840h305q-8 -39 -14 -71h-332v-127h346q0 -6 -5 -33t-7 -37h-334v-344h-74v344h-340l9 70h331v127h-335q2 8 6 34.5t6 36.5h289z" />
<glyph unicode="&#xa6;" horiz-adv-x="436" d="M180 -274v716h78v-716h-78zM180 750v675h78v-675h-78z" />
<glyph unicode="&#xa7;" horiz-adv-x="1015" d="M123 -59l74 34q23 -70 89 -115.5t147 -53t158 9t128 74t51 137.5q0 49 -21.5 89t-69.5 73.5t-87 55t-109 52.5q-78 35 -122 59.5t-101 66.5t-85 96t-28 122q0 172 230 272q-90 53 -135 112.5t-45 139.5q0 139 108.5 220t251.5 81q92 0 178 -40t123 -121 q-16 -8 -34.5 -20.5t-30.5 -18.5q-68 127 -242 127q-109 0 -193 -62.5t-84 -165.5q0 -47 20.5 -85t71 -71.5t83 -51t106.5 -52.5q74 -33 118 -58.5t99 -66.5t82 -94t27 -117q0 -82 -54.5 -158.5t-136.5 -123.5q76 -45 119 -111.5t43 -134.5q0 -111 -62.5 -189.5 t-157.5 -105.5t-195.5 -20.5t-188.5 64t-125 151.5zM229 645q0 -82 40 -127t118 -84l229 -108q72 39 130.5 102.5t58.5 130.5q0 135 -176 232l-162 77q-238 -80 -238 -223z" />
<glyph unicode="&#xa8;" horiz-adv-x="614" d="M43 1390.5q0 26.5 18.5 45t45 18.5t45 -18.5t18.5 -45t-18.5 -45t-45 -18.5t-45 18.5t-18.5 45zM412 1390.5q0 26.5 18.5 45t45 18.5t45 -18.5t18.5 -45t-18.5 -45t-45 -18.5t-45 18.5t-18.5 45z" />
<glyph unicode="&#xa9;" horiz-adv-x="1626" d="M82 725q0 305 218 523t523 218t523.5 -218t218.5 -523t-218.5 -523t-523.5 -218t-523 218t-218 523zM152 725q0 -279 196.5 -475.5t475 -196.5t475 196.5t196.5 475.5t-196.5 475.5t-475 196.5t-475 -196.5t-196.5 -475.5zM442 571v310q0 154 114 238.5t267 84.5 q104 0 194.5 -40t139.5 -115l-59 -39q-82 121 -275 120q-125 0 -216 -63t-91 -182v-314q0 -121 90 -185t217 -64q96 0 177 40.5t114 114.5l68 -33q-43 -92 -142.5 -144t-216.5 -52q-154 0 -267.5 84.5t-113.5 238.5z" />
<glyph unicode="&#xaa;" horiz-adv-x="677" d="M63 981q2 109 78 162t189 53q88 0 176 -37v90q0 68 -53.5 102.5t-130.5 34.5q-104 0 -177 -67l-49 45q92 92 230 92q102 0 177 -55t75 -156v-459q-129 -41 -279 -36q-100 2 -168 64.5t-68 166.5zM135 981q0 -76 47 -122t121 -48q98 0 203 20v265q-94 33 -180 32 q-189 0 -191 -147z" />
<glyph unicode="&#xab;" horiz-adv-x="784" d="M96 604l262 389q12 -8 34 -21.5t30 -19.5l-236 -348q182 -274 234 -348q-14 -8 -31.5 -20.5t-30.5 -18.5zM350 604l262 389q12 -8 34 -21.5t30 -19.5l-240 -348q35 -53 238 -348q-14 -8 -31.5 -20.5t-30.5 -18.5z" />
<glyph unicode="&#xac;" horiz-adv-x="1132" d="M80 725v72h936v-428h-72v356h-864z" />
<glyph unicode="&#xad;" horiz-adv-x="681" d="M109 514v76h464v-76h-464z" />
<glyph unicode="&#xae;" horiz-adv-x="1607" d="M68 725q0 305 218 523t523 218t523 -218t218 -523t-218 -523t-523 -218t-523 218t-218 523zM139 725q0 -279 195.5 -474.5t474 -195.5t474.5 195.5t196 474.5t-196 474.5t-474.5 195.5t-474 -195.5t-195.5 -474.5zM549 309v842h293q133 0 207.5 -67.5t74.5 -172.5 q0 -106 -64.5 -170.5t-166.5 -83.5q90 -127 252 -348h-82l-256 348h-189v-348h-69zM618 723h162q121 0 197 39t76 149q0 88 -64.5 131t-152.5 43h-218v-362z" />
<glyph unicode="&#xaf;" horiz-adv-x="524" d="M-4 1364v78h500v-78h-500z" />
<glyph unicode="&#xb0;" horiz-adv-x="714" d="M100 1206q0 104 75 178t179.5 74t179 -73.5t74.5 -178.5q0 -106 -74.5 -181t-179 -75t-179.5 75t-75 181zM166 1204q0 -80 55 -136t133 -56t133.5 56t55.5 136t-55.5 136.5t-133.5 56.5t-133 -56.5t-55 -136.5z" />
<glyph unicode="&#xb1;" horiz-adv-x="1161" d="M154 801v71h385v367h71v-367h400v-71h-400v-373h-71v373h-385zM162 215v70h839v-70h-839z" />
<glyph unicode="&#xb2;" horiz-adv-x="692" d="M55 651q74 70 212.5 205t195.5 191q43 43 69.5 103t10.5 114q-41 86 -142.5 108.5t-185.5 -16.5q-68 -31 -94 -76l-21 8q-10 4 -21 10.5t-18 8.5q45 82 140 116h-2q76 20 154.5 22.5t151.5 -39.5t103 -118q25 -74 -1.5 -152.5t-90.5 -134.5l-352 -335h457v-64h-547 q-4 8 -9.5 23.5t-9.5 25.5z" />
<glyph unicode="&#xb3;" horiz-adv-x="706" d="M70 760l53 26q27 -51 87 -80.5t126 -33.5q109 -8 188 57q55 43 56 121q0 90 -57.5 134t-145.5 40h-41v51h41q76 0 131 51q41 43 39 98.5t-37 98.5q-57 63 -160 63q-143 0 -198 -96l-50 27q61 117 238 127q59 4 117.5 -16.5t95.5 -61.5q59 -57 57 -149.5t-69 -143.5 l-31 -16q115 -39 132 -174t-77 -205q-92 -76 -233 -70h2q-86 4 -158.5 43t-105.5 109z" />
<glyph unicode="&#xb4;" horiz-adv-x="450" d="M129 1204l129 246h113l-170 -246h-72z" />
<glyph unicode="&#xb5;" horiz-adv-x="1028" d="M141 -446v1509h78v-674q0 -84 18.5 -150.5t80 -119.5t159.5 -53q154 0 251 104t97 303v590h78l6 -1063h-73l-5 211q-45 -100 -143 -157.5t-211 -57.5q-180 0 -260 141v-583h-76z" />
<glyph unicode="&#xb6;" horiz-adv-x="1128" d="M59 1012q0 178 126 308t354 130h444v-1688h-68v1633h-307v-1633h-69v824q-221 0 -350.5 127t-129.5 299z" />
<glyph unicode="&#xb7;" horiz-adv-x="532" d="M188 651q0 33 22.5 55.5t55.5 22.5t55.5 -22.5t22.5 -55.5t-22.5 -55.5t-55.5 -22.5t-55.5 22.5t-22.5 55.5z" />
<glyph unicode="&#xb8;" horiz-adv-x="499" d="M84 -334l10 47q53 -23 123 -22q49 0 91 24.5t42 73.5q0 47 -37 69.5t-90 22.5q-43 0 -69 -10l-7 6q18 31 50 77l43 64h57l-59 -92q78 16 131 -31t49 -106q-2 -57 -39 -96t-88 -52.5t-108.5 -7.5t-98.5 33z" />
<glyph unicode="&#xb9;" horiz-adv-x="577" d="M125 1237l190 215h74v-827h-70v735l-141 -164z" />
<glyph unicode="&#xba;" horiz-adv-x="745" d="M74 973v237q0 111 88 173.5t204.5 62.5t204.5 -62.5t88 -173.5v-237q0 -111 -88 -173.5t-204.5 -62.5t-204.5 62.5t-88 173.5zM143 979q0 -90 65.5 -132t158 -42t158 42t65.5 132v225q0 90 -65.5 132t-158 42t-158 -42t-65.5 -132v-225z" />
<glyph unicode="&#xbb;" horiz-adv-x="788" d="M125 256l240 348q-35 53 -238 348q14 8 31.5 20.5t29.5 18.5l263 -387l-263 -389q-12 8 -33.5 21.5t-29.5 19.5zM375 256l239 348q-35 53 -237 348q14 8 31.5 20.5t29.5 18.5l262 -387l-262 -389q-12 8 -33.5 21.5t-29.5 19.5z" />
<glyph unicode="&#xbc;" horiz-adv-x="1394" d="M70 1237l190 215h70v-827h-66v735l-143 -162zM174 -6l913 1497q12 -8 31 -19.5t27 -17.5l-916 -1495zM688 270l445 566h94v-572h67v-57h-67v-207h-66v207h-432zM760 264h401l6 514z" />
<glyph unicode="&#xbd;" horiz-adv-x="1556" d="M90 1237l191 215h69v-827h-65v735l-144 -162zM201 -6l913 1497q12 -8 30.5 -19.5t26.5 -17.5l-915 -1495zM883 49q70 66 207 208t200 202q109 102 74 219q-55 115 -187.5 114t-199.5 -102q-6 2 -66 29q45 82 140 117h-2q74 25 147.5 24.5t141 -42.5t98.5 -118 q25 -74 -2 -152.5t-91 -133.5l-344 -346h449v-68h-547q-4 8 -9 23.5t-9 25.5z" />
<glyph unicode="&#xbe;" horiz-adv-x="1556" d="M113 760l53 26q27 -51 87 -80.5t126 -33.5q109 -8 188 57q55 43 56 121q0 90 -57.5 134t-145.5 40h-41v51h41q76 0 131 51q41 43 39 98.5t-37 98.5q-57 63 -160 63q-143 0 -198 -96l-50 27q61 117 238 127q59 4 117.5 -16.5t95.5 -61.5q59 -57 57 -149.5t-69 -143.5 l-31 -16q115 -39 132 -174t-77 -205q-92 -76 -233 -70h2q-86 4 -158.5 43t-105.5 109zM369 -6l913 1497q12 -8 28.5 -19.5t26.5 -17.5l-915 -1495zM825 270l445 566h94v-572h68v-57h-68v-207h-66v207h-432zM897 264h401l7 514z" />
<glyph unicode="&#xbf;" horiz-adv-x="978" d="M80 4q2 180 122 288.5t298 141.5q2 43 8 188.5t8 204.5h59l13 -458q-180 -6 -307 -105.5t-125 -261.5q2 -154 110.5 -237.5t257.5 -83.5q78 0 165 36.5t145 92.5l45 -50q-135 -156 -359 -155q-180 0 -311 105.5t-129 293.5zM469 993.5q0 32.5 21.5 54t52.5 21.5 q33 0 55.5 -21.5t22.5 -54t-23 -55.5t-55 -23q-31 0 -52.5 23t-21.5 55.5z" />
<glyph unicode="&#xc0;" horiz-adv-x="1267" d="M41 0l530 1479h117l533 -1479h-86l-183 504h-649q-27 -78 -88 -252t-88 -252h-86zM332 584h594l-297 835zM428 1780h117l141 -226h-78z" />
<glyph unicode="&#xc1;" horiz-adv-x="1267" d="M41 0l530 1479h117l533 -1479h-86l-183 504h-649q-27 -78 -88 -252t-88 -252h-86zM332 584h594l-297 835zM569 1546l129 246h113l-170 -246h-72z" />
<glyph unicode="&#xc2;" horiz-adv-x="1267" d="M41 0l530 1479h117l533 -1479h-86l-183 504h-649q-27 -78 -88 -252t-88 -252h-86zM332 584h594l-297 835zM381 1524l201 223h90l200 -223h-75l-172 176l-166 -176h-78z" />
<glyph unicode="&#xc3;" horiz-adv-x="1267" d="M41 0l530 1479h117l533 -1479h-86l-183 504h-649q-27 -78 -88 -252t-88 -252h-86zM332 584h594l-297 835zM424 1585q27 100 123 101q27 0 82 -28t86 -28q49 0 71 47l43 -16q-10 -45 -42.5 -73.5t-69.5 -28.5q-33 0 -92.5 27.5t-87.5 27.5q-45 0 -70 -53z" />
<glyph unicode="&#xc4;" horiz-adv-x="1267" d="M41 0l530 1479h117l533 -1479h-86l-183 504h-649q-27 -78 -88 -252t-88 -252h-86zM332 584h594l-297 835zM418 1608q0 27 17.5 44t40 17t38.5 -17.5t16 -43.5q0 -25 -16 -43.5t-38.5 -18.5t-40 18.5t-17.5 43.5zM741 1608q0 27 16.5 44t39 17t39 -17.5t16.5 -43.5 q0 -25 -16.5 -43.5t-39 -18.5t-39 18.5t-16.5 43.5z" />
<glyph unicode="&#xc5;" horiz-adv-x="1267" d="M41 0l530 1479h117l533 -1479h-86l-183 504h-649q-27 -78 -88 -252t-88 -252h-86zM332 584h594l-297 835zM461 1691.5q0 71.5 51 123t120.5 51.5t119 -53.5t49.5 -122.5q0 -68 -50.5 -120t-117.5 -52q-70 0 -121 51t-51 122.5zM522 1690q0 -45 32 -78t77 -33t76.5 34 t31.5 79t-31.5 78.5t-76.5 33.5t-77 -34.5t-32 -79.5z" />
<glyph unicode="&#xc6;" horiz-adv-x="1562" d="M10 -2l729 1452h764v-76h-622v-631h559v-77h-559v-592h622v-74h-698v504h-451q-39 -78 -127 -252t-129 -254h-88zM391 580h414v802l-19 2z" />
<glyph unicode="&#xc7;" horiz-adv-x="1179" d="M115 403v644q0 197 157.5 308t370.5 111q154 0 282 -58t187 -171q-10 -6 -33.5 -18.5t-38.5 -18.5q-53 88 -163.5 137t-239.5 49q-178 0 -310 -90t-132 -249v-644q0 -160 132 -250t310 -90q127 0 238.5 49.5t166.5 137.5l70 -35q-61 -113 -191 -172t-284 -59h-4l-35 -56 q78 16 131 -31t49 -106q-2 -57 -39 -96t-88 -52.5t-108.5 -7t-98.5 32.5l11 47q53 -23 123 -22q49 0 91 24.5t42 73.5q0 47 -37 69.5t-90 22.5q-43 0 -70 -10l-6 6q31 53 70 107q-193 14 -328 124.5t-135 292.5z" />
<glyph unicode="&#xc8;" horiz-adv-x="1171" d="M182 2v1448h877v-80h-797v-604h735v-82h-735v-602h797v-80h-877zM432 1757h117l141 -225h-78z" />
<glyph unicode="&#xc9;" horiz-adv-x="1171" d="M182 2v1448h877v-80h-797v-604h735v-82h-735v-602h797v-80h-877zM582 1538l129 246h112l-170 -246h-71z" />
<glyph unicode="&#xca;" horiz-adv-x="1171" d="M182 2v1448h877v-80h-797v-604h735v-82h-735v-602h797v-80h-877zM387 1524l201 223h90l201 -223h-82l-166 174l-162 -174h-82z" />
<glyph unicode="&#xcb;" horiz-adv-x="1171" d="M182 2v1448h877v-80h-797v-604h735v-82h-735v-602h797v-80h-877zM383 1615.5q0 26.5 18.5 45t45 18.5t45 -18.5t18.5 -45t-18.5 -45t-45 -18.5t-45 18.5t-18.5 45zM752 1615.5q0 26.5 18 45t45 18.5t45.5 -18.5t18.5 -45t-18.5 -45t-45.5 -18.5t-45 18.5t-18 45z" />
<glyph unicode="&#xcc;" horiz-adv-x="475" d="M25 1759h116l135 -213h-77zM184 0v1448h80v-1448h-80z" />
<glyph unicode="&#xcd;" horiz-adv-x="475" d="M172 1534l129 246h113l-170 -246h-72zM184 0v1448h80v-1448h-80z" />
<glyph unicode="&#xce;" horiz-adv-x="475" d="M-12 1526l200 223h91l200 -223h-86l-162 166l-159 -166h-84zM184 0v1448h80v-1448h-80z" />
<glyph unicode="&#xcf;" horiz-adv-x="475" d="M-18 1624q0 27 18 45.5t45 18.5t45.5 -18.5t18.5 -45.5t-18.5 -45t-45.5 -18t-45 18t-18 45zM184 0v1448h80v-1448h-80zM350 1624q0 27 18.5 45.5t45 18.5t45 -18.5t18.5 -45.5t-18.5 -45t-45 -18t-45 18t-18.5 45z" />
<glyph unicode="&#xd0;" horiz-adv-x="1255" d="M39 682v74h129v694h463q213 0 367.5 -111.5t154.5 -312.5v-604q0 -201 -154.5 -311.5t-367.5 -110.5h-463v682h-129zM248 80h383q180 0 311 90t131 252v604q0 164 -131 254t-311 90h-383v-614h256v-74h-256v-602z" />
<glyph unicode="&#xd1;" horiz-adv-x="1411" d="M182 0v1450h101l839 -1350v1350h80v-1450h-117l-823 1327v-1327h-80zM461 1577q29 102 141 102q31 0 94.5 -28.5t98.5 -28.5q55 0 84 51l47 -18q-12 -47 -49 -77t-80 -30q-37 0 -104.5 30t-100.5 30q-53 0 -82 -58z" />
<glyph unicode="&#xd2;" horiz-adv-x="1396" d="M143 403v644q0 135 82 234t205 144t266.5 45t266 -45t205.5 -144t83 -234v-644q0 -135 -82 -234t-205.5 -145.5t-267 -46.5t-266.5 46.5t-205 145.5t-82 234zM223 403q0 -164 140.5 -255t333 -91t332.5 91.5t142 254.5v644q0 170 -140 258t-337 88q-195 -2 -333 -90.5 t-138 -255.5v-644zM477 1772h117l141 -226h-78z" />
<glyph unicode="&#xd3;" horiz-adv-x="1396" d="M143 403v644q0 135 82 234t205 144t266.5 45t266 -45t205.5 -144t83 -234v-644q0 -135 -82 -234t-205.5 -145.5t-267 -46.5t-266.5 46.5t-205 145.5t-82 234zM223 403q0 -164 140.5 -255t333 -91t332.5 91.5t142 254.5v644q0 170 -140 258t-337 88q-195 -2 -333 -90.5 t-138 -255.5v-644zM668 1544l129 246h112l-170 -246h-71z" />
<glyph unicode="&#xd4;" horiz-adv-x="1396" d="M143 403v644q0 135 82 234t205 144t266.5 45t266 -45t205.5 -144t83 -234v-644q0 -135 -82 -234t-205.5 -145.5t-267 -46.5t-266.5 46.5t-205 145.5t-82 234zM223 403q0 -164 140.5 -255t333 -91t332.5 91.5t142 254.5v644q0 170 -140 258t-337 88q-195 -2 -333 -90.5 t-138 -255.5v-644zM461 1530l201 223h90l200 -223h-80l-167 172l-160 -172h-84z" />
<glyph unicode="&#xd5;" horiz-adv-x="1396" d="M143 403v644q0 135 82 234t205 144t266.5 45t266 -45t205.5 -144t83 -234v-644q0 -135 -82 -234t-205.5 -145.5t-267 -46.5t-266.5 46.5t-205 145.5t-82 234zM223 403q0 -164 140.5 -255t333 -91t332.5 91.5t142 254.5v644q0 170 -140 258t-337 88q-195 -2 -333 -90.5 t-138 -255.5v-644zM512 1573q25 94 121 94q27 0 83 -25.5t85 -25.5q49 0 71 45l43 -16q-10 -43 -42.5 -71t-69.5 -28q-31 0 -90.5 28t-87.5 28q-47 0 -70 -54z" />
<glyph unicode="&#xd6;" horiz-adv-x="1396" d="M143 403v644q0 135 82 234t205 144t266.5 45t266 -45t205.5 -144t83 -234v-644q0 -135 -82 -234t-205.5 -145.5t-267 -46.5t-266.5 46.5t-205 145.5t-82 234zM223 403q0 -164 140.5 -255t333 -91t332.5 91.5t142 254.5v644q0 170 -140 258t-337 88q-195 -2 -333 -90.5 t-138 -255.5v-644zM463 1603.5q0 26.5 18.5 45t45 18.5t45 -18.5t18.5 -45t-18.5 -45t-45 -18.5t-45 18.5t-18.5 45zM831 1603.5q0 26.5 18.5 45t45.5 18.5t45 -18.5t18 -45t-18 -45t-45 -18.5t-45.5 18.5t-18.5 45z" />
<glyph unicode="&#xd7;" horiz-adv-x="1148" d="M195 1026l55 53l334 -334l325 326l56 -53l-328 -326l321 -321l-53 -56l-321 322l-330 -330l-53 55l327 328z" />
<glyph unicode="&#xd8;" horiz-adv-x="1396" d="M143 408v636q0 135 82 234.5t205 144.5t266 45q115 0 244 -38l61 145q14 -6 36 -12.5t30 -10.5l-61 -149q246 -125 245 -359v-636q0 -135 -82 -234.5t-205.5 -145.5t-267.5 -46q-104 0 -237 38l-60 -151q-18 6 -38.5 12t-28.5 8l61 158q-250 128 -250 361zM223 408 q0 -180 199 -291l487 1243q-111 31 -215 31q-195 -2 -333 -90.5t-138 -256.5v-636zM489 92q109 -31 207 -31q193 0 333 91.5t142 255.5v636q0 180 -194 289z" />
<glyph unicode="&#xd9;" horiz-adv-x="1400" d="M176 418v1032h80v-1032q0 -166 131 -258t311.5 -92t312.5 92t132 258v1032h80v-1032q0 -203 -156 -317.5t-369 -114.5t-367.5 114.5t-154.5 317.5zM500 1749h116l142 -225h-78z" />
<glyph unicode="&#xda;" horiz-adv-x="1400" d="M176 418v1032h80v-1032q0 -166 131 -258t311.5 -92t312.5 92t132 258v1032h80v-1032q0 -203 -156 -317.5t-369 -114.5t-367.5 114.5t-154.5 317.5zM629 1526l129 246h112l-170 -246h-71z" />
<glyph unicode="&#xdb;" horiz-adv-x="1400" d="M176 418v1032h80v-1032q0 -166 131 -258t311.5 -92t312.5 92t132 258v1032h80v-1032q0 -203 -156 -317.5t-369 -114.5t-367.5 114.5t-154.5 317.5zM455 1532l200 223h90l201 -223h-76l-172 176l-166 -176h-77z" />
<glyph unicode="&#xdc;" horiz-adv-x="1400" d="M176 418v1032h80v-1032q0 -166 131 -258t311.5 -92t312.5 92t132 258v1032h80v-1032q0 -203 -156 -317.5t-369 -114.5t-367.5 114.5t-154.5 317.5zM459 1611.5q0 26.5 18.5 45t45 18.5t45 -18.5t18.5 -45t-18.5 -45t-45 -18.5t-45 18.5t-18.5 45zM827 1611.5 q0 26.5 18.5 45t45.5 18.5t45 -18.5t18 -45t-18 -45t-45 -18.5t-45.5 18.5t-18.5 45z" />
<glyph unicode="&#xdd;" horiz-adv-x="1171" d="M57 1448h93l436 -803l434 803h94l-489 -875v-573h-80v573zM543 1526l129 246h112l-170 -246h-71z" />
<glyph unicode="&#xde;" horiz-adv-x="1097" d="M180 0v1454h82v-299q127 16 213 16q266 0 407.5 -108.5t141.5 -314.5q0 -115 -49 -200t-133 -131t-181.5 -67.5t-209.5 -21.5h-101q2 16 6 39.5t4 38.5h84q96 0 176 14t157 50t121 106.5t44 171.5q0 82 -29.5 145t-77 100t-113 59.5t-126.5 31t-129 8.5q-115 0 -205 -17 v-1075h-82z" />
<glyph unicode="&#xdf;" horiz-adv-x="1173" d="M145 -2v1122q0 170 131.5 270.5t305.5 100.5q176 0 307 -94t131 -264q0 -219 -197 -332q264 -92 264 -377q-4 -201 -159.5 -321.5t-358.5 -116.5q-100 2 -225 55q0 16 1 43t1 41q139 -55 221 -57q174 -4 306.5 95t132.5 263q0 170 -106.5 254t-278.5 82h-213v74h213 q137 0 228 77.5t91 219.5q0 143 -105.5 213.5t-252.5 70.5q-145 0 -252 -75.5t-107 -221.5v-1122h-78z" />
<glyph unicode="&#xe0;" d="M113 328q2 164 114.5 247.5t278.5 83.5q164 0 297 -59v164q0 121 -91 181.5t-223 60.5q-152 0 -264 -105q-8 8 -22.5 25.5t-22.5 23.5q119 125 322 125q154 0 264.5 -82t110.5 -229v-723q-190 -63 -414 -59q-150 2 -250 97t-100 249zM184 328q0 -131 80 -205t205 -76 q162 -4 317 35l17 6v442q-154 61 -301 62q-137 0 -226.5 -62.5t-91.5 -201.5zM350 1350h107l129 -205h-72z" />
<glyph unicode="&#xe1;" d="M113 328q2 164 114.5 247.5t278.5 83.5q164 0 297 -59v164q0 121 -91 181.5t-223 60.5q-152 0 -264 -105q-8 8 -22.5 25.5t-22.5 23.5q119 125 322 125q154 0 264.5 -82t110.5 -229v-723q-190 -63 -414 -59q-150 2 -250 97t-100 249zM184 328q0 -131 80 -205t205 -76 q162 -4 317 35l17 6v442q-154 61 -301 62q-137 0 -226.5 -62.5t-91.5 -201.5zM477 1130l125 226h107l-162 -226h-70z" />
<glyph unicode="&#xe2;" d="M113 328q2 164 114.5 247.5t278.5 83.5q164 0 297 -59v164q0 121 -91 181.5t-223 60.5q-152 0 -264 -105q-8 8 -22.5 25.5t-22.5 23.5q119 125 322 125q154 0 264.5 -82t110.5 -229v-723q-190 -63 -414 -59q-150 2 -250 97t-100 249zM184 328q0 -131 80 -205t205 -76 q162 -4 317 35l17 6v442q-154 61 -301 62q-137 0 -226.5 -62.5t-91.5 -201.5zM291 1130l188 207h86l187 -207h-78l-154 152l-149 -152h-80z" />
<glyph unicode="&#xe3;" d="M113 328q2 164 114.5 247.5t278.5 83.5q164 0 297 -59v164q0 121 -91 181.5t-223 60.5q-152 0 -264 -105q-8 8 -22.5 25.5t-22.5 23.5q119 125 322 125q154 0 264.5 -82t110.5 -229v-723q-190 -63 -414 -59q-150 2 -250 97t-100 249zM184 328q0 -131 80 -205t205 -76 q162 -4 317 35l17 6v442q-154 61 -301 62q-137 0 -226.5 -62.5t-91.5 -201.5zM330 1182q25 92 121 92q27 0 82 -25.5t85 -25.5q47 0 72 45l41 -17q-10 -41 -43 -67.5t-67 -26.5q-33 0 -92.5 25.5t-88.5 25.5q-45 0 -69 -49z" />
<glyph unicode="&#xe4;" d="M113 328q2 164 114.5 247.5t278.5 83.5q164 0 297 -59v164q0 121 -91 181.5t-223 60.5q-152 0 -264 -105q-8 8 -22.5 25.5t-22.5 23.5q119 125 322 125q154 0 264.5 -82t110.5 -229v-723q-190 -63 -414 -59q-150 2 -250 97t-100 249zM184 328q0 -131 80 -205t205 -76 q162 -4 317 35l17 6v442q-154 61 -301 62q-137 0 -226.5 -62.5t-91.5 -201.5zM317 1204q0 27 16.5 44.5t39 17.5t39 -17.5t16.5 -44.5q0 -25 -16.5 -43t-39 -18t-39 18t-16.5 43zM637 1204q0 27 15.5 44.5t38 17.5t38.5 -17.5t16 -44.5q0 -25 -16 -43t-39 -18 q-20 0 -36.5 18t-16.5 43z" />
<glyph unicode="&#xe5;" d="M113 328q2 164 114.5 247.5t278.5 83.5q164 0 297 -59v164q0 121 -91 181.5t-223 60.5q-152 0 -264 -105q-8 8 -22.5 25.5t-22.5 23.5q119 125 322 125q154 0 264.5 -82t110.5 -229v-723q-190 -63 -414 -59q-150 2 -250 97t-100 249zM184 328q0 -131 80 -205t205 -76 q162 -4 317 35l17 6v442q-154 61 -301 62q-137 0 -226.5 -62.5t-91.5 -201.5zM352 1284.5q0 65.5 52.5 113.5t124 48t121.5 -50t50 -113.5t-51 -112t-121 -48.5q-72 0 -124 48.5t-52 114zM416 1282q0 -43 32.5 -73.5t77.5 -30.5q47 0 79 31.5t32 74.5t-32 74t-79 31 t-78.5 -32t-31.5 -75z" />
<glyph unicode="&#xe6;" horiz-adv-x="1683" d="M113 328q2 166 114.5 251t278.5 85q156 0 297 -64l2 180q-8 113 -97.5 169.5t-213.5 56.5q-150 0 -265 -107q-6 6 -23.5 25.5t-25.5 25.5q121 127 318 127q111 0 206 -45t140 -129q49 80 141 123t199 43q154 0 267.5 -85t113.5 -239v-266h-688v-168q-2 -121 88 -184.5 t219 -63.5q201 0 278 134l68 -35q-45 -86 -139.5 -130t-206.5 -44q-221 0 -326 143q-70 -70 -181.5 -110.5t-213.5 -38.5q-150 2 -250 97t-100 249zM186 328q0 -131 79 -204t204 -75q84 -2 188.5 39t165.5 107q-20 57 -20 116l-2 219q-154 61 -299 62q-137 0 -225.5 -62.5 t-90.5 -201.5zM877 547h614v203q0 119 -91 183t-216 64q-129 0 -219.5 -64.5t-87.5 -182.5v-203z" />
<glyph unicode="&#xe7;" horiz-adv-x="901" d="M102 309v441q0 154 114 238.5t267 84.5q104 0 194.5 -40t139.5 -115l-59 -39q-82 121 -275 120q-125 0 -216 -63.5t-91 -181.5v-445q0 -121 90 -185.5t217 -64.5q96 0 177 41t114 115l68 -33q-41 -88 -135.5 -140t-206.5 -56l-29 -47q82 16 135 -24t49 -97 q-4 -74 -64.5 -114t-137 -38t-134.5 37l11 45q55 -23 127 -22q49 0 89 22.5t40 69.5q0 78 -129 78q-47 0 -72 -11l-6 6q6 10 26.5 44t32.5 53q-141 12 -238.5 95t-97.5 226z" />
<glyph unicode="&#xe8;" horiz-adv-x="1005" d="M123 311v434q0 154 113.5 239t269.5 85q154 0 267.5 -85t113.5 -239v-266h-688v-168q-2 -121 88 -184.5t219 -63.5q201 0 278 134l68 -35q-45 -86 -139.5 -130t-206.5 -44q-156 0 -269.5 84.5t-113.5 238.5zM199 547h614v198v5q0 119 -91 183t-216 64q-129 0 -219 -64.5 t-88 -182.5v-203zM311 1346h117l141 -226h-77z" />
<glyph unicode="&#xe9;" horiz-adv-x="1005" d="M123 311v434q0 154 113.5 239t269.5 85q154 0 267.5 -85t113.5 -239v-266h-688v-168q-2 -121 88 -184.5t219 -63.5q201 0 278 134l68 -35q-45 -86 -139.5 -130t-206.5 -44q-156 0 -269.5 84.5t-113.5 238.5zM199 547h614v198v5q0 119 -91 183t-216 64q-129 0 -219 -64.5 t-88 -182.5v-203zM442 1122l129 246h113l-170 -246h-72z" />
<glyph unicode="&#xea;" horiz-adv-x="1005" d="M123 311v434q0 154 113.5 239t269.5 85q154 0 267.5 -85t113.5 -239v-266h-688v-168q-2 -121 88 -184.5t219 -63.5q201 0 278 134l68 -35q-45 -86 -139.5 -130t-206.5 -44q-156 0 -269.5 84.5t-113.5 238.5zM199 547h614v198v5q0 119 -91 183t-216 64q-129 0 -219 -64.5 t-88 -182.5v-203zM268 1104l197 207h88l197 -207h-80l-164 151l-154 -151h-84z" />
<glyph unicode="&#xeb;" horiz-adv-x="1005" d="M123 311v434q0 154 113.5 239t269.5 85q154 0 267.5 -85t113.5 -239v-266h-688v-168q-2 -121 88 -184.5t219 -63.5q201 0 278 134l68 -35q-45 -86 -139.5 -130t-206.5 -44q-156 0 -269.5 84.5t-113.5 238.5zM199 547h614v198v5q0 119 -91 183t-216 64q-129 0 -219 -64.5 t-88 -182.5v-203zM285 1181.5q0 24.5 17 43t40 18.5t40 -18.5t17 -43t-17 -42t-40 -17.5t-40 17.5t-17 42zM618 1181.5q0 24.5 17.5 43t40 18.5t40 -18.5t17.5 -43t-17.5 -42t-40 -17.5t-40 17.5t-17.5 42z" />
<glyph unicode="&#xec;" horiz-adv-x="452" d="M25 1360h116l142 -225h-78zM182 0v1063h78v-1063h-78z" />
<glyph unicode="&#xed;" horiz-adv-x="452" d="M154 1128l129 246h112l-170 -246h-71zM182 0v1061h78v-1061h-78z" />
<glyph unicode="&#xee;" horiz-adv-x="491" d="M25 1112l180 219h76l176 -219h-74l-147 160l-136 -160h-75zM205 0v1061h78v-1061h-78z" />
<glyph unicode="&#xef;" horiz-adv-x="489" d="M51 1255q0 27 18.5 46.5t47.5 19.5q25 0 44 -19.5t19 -46t-19.5 -46t-43.5 -19.5q-29 0 -47.5 18t-18.5 47zM205 2v1057h82v-1057h-82zM317 1255q0 27 18.5 46.5t45.5 19.5t46 -19.5t19 -46t-18 -46t-47 -19.5q-27 0 -45.5 18t-18.5 47z" />
<glyph unicode="&#xf0;" horiz-adv-x="1077" d="M162 303v336q0 150 112.5 238t264.5 86q160 0 305 -72v248q0 170 -203 235l-51 -166q-12 4 -30.5 11.5t-27.5 9.5l50 157q-205 23 -316 -94l-47 45q66 72 168 101.5t215 13.5l45 133q10 -4 30.5 -10t27.5 -8l-41 -127q113 -35 182 -111t69 -190v-1098l-98 -31 q-102 -29 -287 -28q-150 2 -259 86.5t-109 234.5zM233 303q0 -119 88.5 -184.5t210.5 -65.5q193 0 312 51v713q-158 70 -309 70q-123 -2 -212.5 -65.5t-89.5 -180.5v-338z" />
<glyph unicode="&#xf1;" horiz-adv-x="1089" d="M164 0v1006q223 78 387 77q152 -4 262.5 -89t110.5 -234v-760h-74v760q0 119 -89 183.5t-210 64.5q-170 0 -313 -62v-946h-74zM354 1178q27 94 123 94q27 0 82 -25.5t86 -25.5q49 0 72 45l43 -17q-10 -43 -43 -70.5t-70 -27.5q-33 0 -92 27.5t-88 27.5q-45 0 -70 -53z " />
<glyph unicode="&#xf2;" horiz-adv-x="1030" d="M133 309v441q0 154 113.5 238.5t269.5 86.5q156 -2 268.5 -87t112.5 -238v-441q0 -154 -112.5 -238.5t-268.5 -86.5q-156 2 -269.5 86.5t-113.5 238.5zM207 309q0 -123 92 -187.5t217 -64.5q123 0 215 64.5t92 187.5v441q0 123 -91 186t-216 63t-217 -63.5t-92 -185.5 v-441zM315 1348h117l141 -226h-77z" />
<glyph unicode="&#xf3;" horiz-adv-x="1030" d="M133 309v441q0 154 113.5 238.5t269.5 86.5q156 -2 268.5 -87t112.5 -238v-441q0 -154 -112.5 -238.5t-268.5 -86.5q-156 2 -269.5 86.5t-113.5 238.5zM207 309q0 -123 92 -187.5t217 -64.5q123 0 215 64.5t92 187.5v441q0 123 -91 186t-216 63t-217 -63.5t-92 -185.5 v-441zM451 1120l129 246h112l-170 -246h-71z" />
<glyph unicode="&#xf4;" horiz-adv-x="1030" d="M133 309v441q0 154 113.5 238.5t269.5 86.5q156 -2 268.5 -87t112.5 -238v-441q0 -154 -112.5 -238.5t-268.5 -86.5q-156 2 -269.5 86.5t-113.5 238.5zM207 309q0 -123 92 -187.5t217 -64.5q123 0 215 64.5t92 187.5v441q0 123 -91 186t-216 63t-217 -63.5t-92 -185.5 v-441zM270 1120l201 217h90l201 -217h-82l-166 166l-158 -166h-86z" />
<glyph unicode="&#xf5;" horiz-adv-x="1030" d="M133 309v441q0 154 113.5 238.5t269.5 86.5q156 -2 268.5 -87t112.5 -238v-441q0 -154 -112.5 -238.5t-268.5 -86.5q-156 2 -269.5 86.5t-113.5 238.5zM207 309q0 -123 92 -187.5t217 -64.5q123 0 215 64.5t92 187.5v441q0 123 -91 186t-216 63t-217 -63.5t-92 -185.5 v-441zM311 1165q27 104 123 105q27 0 83 -29t87 -29q49 0 72 50l43 -17q-10 -47 -43 -77.5t-70 -30.5q-33 0 -92 29.5t-88 29.5q-45 0 -72 -57z" />
<glyph unicode="&#xf6;" horiz-adv-x="1030" d="M133 309v441q0 154 113.5 238.5t269.5 86.5q156 -2 268.5 -87t112.5 -238v-441q0 -154 -112.5 -238.5t-268.5 -86.5q-156 2 -269.5 86.5t-113.5 238.5zM207 309q0 -123 92 -187.5t217 -64.5q123 0 215 64.5t92 187.5v441q0 123 -91 186t-216 63t-217 -63.5t-92 -185.5 v-441zM266 1200.5q0 26.5 18.5 45t45 18.5t45 -18.5t18.5 -45t-18.5 -45t-45 -18.5t-45 18.5t-18.5 45zM635 1200.5q0 26.5 18.5 45t45 18.5t45 -18.5t18.5 -45t-18.5 -45t-45 -18.5t-45 18.5t-18.5 45z" />
<glyph unicode="&#xf7;" horiz-adv-x="1081" d="M102 641v78h875v-78h-875zM473 356.5q0 32.5 21.5 53t54.5 22.5q33 0 54.5 -21.5t21.5 -54t-21.5 -54t-54.5 -21.5t-54.5 21.5t-21.5 54zM473 981q0 33 21.5 53.5t54.5 22.5q33 0 54.5 -21.5t21.5 -54.5t-21.5 -54.5t-54.5 -21.5t-54.5 21.5t-21.5 54.5z" />
<glyph unicode="&#xf8;" horiz-adv-x="1019" d="M133 311v441q0 154 113.5 238.5t269.5 86.5q82 -4 168 -30l61 153q14 -6 34 -11t30 -9l-66 -158q154 -98 154 -270v-441q0 -154 -112.5 -238.5t-268.5 -86.5q-80 4 -172 32l-59 -141l-58 23l60 143q-154 98 -154 268zM207 311q0 -117 104 -200l342 868q-80 23 -137 22 q-125 0 -217 -63.5t-92 -185.5v-441zM369 84q80 -25 147 -25q123 0 215 64.5t92 187.5v441q0 115 -108 198z" />
<glyph unicode="&#xf9;" horiz-adv-x="1058" d="M152 305v756h73v-756q0 -119 89 -183.5t210 -64.5q170 0 314 62v942h73v-1002q-223 -78 -387 -77q-152 4 -262 88.5t-110 234.5zM356 1346h117l141 -226h-77z" />
<glyph unicode="&#xfa;" horiz-adv-x="1058" d="M152 305v756h73v-756q0 -119 89 -183.5t210 -64.5q170 0 314 62v942h73v-1002q-223 -78 -387 -77q-152 4 -262 88.5t-110 234.5zM465 1092l129 245h113l-170 -245h-72z" />
<glyph unicode="&#xfb;" horiz-adv-x="1058" d="M152 305v756h73v-756q0 -119 89 -183.5t210 -64.5q170 0 314 62v942h73v-1002q-223 -78 -387 -77q-152 4 -262 88.5t-110 234.5zM291 1130l201 224h90l200 -224h-75l-172 177l-166 -177h-78z" />
<glyph unicode="&#xfc;" horiz-adv-x="1058" d="M152 305v756h73v-756q0 -119 89 -183.5t210 -64.5q170 0 314 62v942h73v-1002q-223 -78 -387 -77q-152 4 -262 88.5t-110 234.5zM287 1239q0 27 18.5 45.5t45 18.5t45 -18.5t18.5 -45.5t-18.5 -45t-45 -18t-45 18t-18.5 45zM655 1239q0 27 18.5 45.5t45 18.5t45 -18.5 t18.5 -45.5t-18.5 -45t-45 -18t-45 18t-18.5 45z" />
<glyph unicode="&#xfd;" horiz-adv-x="1062" d="M150 307v752h73v-752q-2 -119 87 -182.5t216 -67.5q131 2 297 70l13 10v922h71v-1106q0 -154 -109.5 -233.5t-265.5 -79.5q-203 0 -321 112l45 45q92 -74 229.5 -88t244 49.5t106.5 192.5v110q-154 -76 -306 -75q-154 -2 -267 84.5t-113 236.5zM469 1120l129 246h113 l-170 -246h-72z" />
<glyph unicode="&#xfe;" horiz-adv-x="1056" d="M162 -381v1829h74v-416q162 41 315 41q154 -2 265.5 -89t111.5 -239v-434q0 -152 -115 -239.5t-268 -85.5q-182 4 -309 63v-430h-74zM236 129q158 -68 313 -68q125 2 215 65.5t88 180.5v438q2 121 -86 185.5t-215 64.5q-190 0 -315 -43v-823z" />
<glyph unicode="&#xff;" horiz-adv-x="1062" d="M150 307v752h73v-752q-2 -119 87 -182.5t216 -67.5q131 2 297 70l13 10v922h71v-1106q0 -154 -109.5 -233.5t-265.5 -79.5q-203 0 -321 112l45 45q92 -74 229.5 -88t244 49.5t106.5 192.5v110q-154 -76 -306 -75q-154 -2 -267 84.5t-113 236.5zM293 1257.5 q0 26.5 18.5 45t45 18.5t45 -18.5t18.5 -45t-18.5 -45t-45 -18.5t-45 18.5t-18.5 45zM662 1257.5q0 26.5 18 45t45 18.5t45 -18.5t18 -45t-18 -45t-45 -18.5t-45 18.5t-18 45z" />
<glyph unicode="&#x152;" horiz-adv-x="1914" d="M141 420v618q0 199 163 310.5t386 113.5q174 0 305 -88v76h826v-74h-746v-614h682v-76h-682v-610h746v-76h-826v68q-150 -80 -315 -76q-219 4 -379 117.5t-160 310.5zM221 420q0 -164 140.5 -256t330.5 -92q162 0 303 75v1158q-154 80 -303 77q-195 0 -333 -88t-138 -256 v-618z" />
<glyph unicode="&#x153;" horiz-adv-x="1705" d="M133 309v441q0 154 113.5 238.5t269.5 86.5q113 -2 209 -52t135 -144q43 94 138.5 142t205.5 48q154 0 267.5 -85t113.5 -239v-266h-688v-168q-2 -121 88 -184.5t219 -63.5q201 0 279 134l67 -35q-45 -86 -139 -130t-206.5 -44t-206 47t-138.5 143q-84 -190 -344 -194 q-156 2 -269.5 86.5t-113.5 238.5zM207 309q0 -123 92 -187.5t217 -64.5q117 0 206 57.5t99 168.5v491q-10 111 -99 168t-206 57q-125 0 -217 -63.5t-92 -185.5v-441zM897 547h614v203q0 119 -91 183t-216 64q-129 0 -219 -64.5t-88 -182.5v-203z" />
<glyph unicode="&#x178;" horiz-adv-x="993" d="M-66 1450h93l436 -805l434 805h94l-489 -877v-573h-80v573zM182 1595.5q0 26.5 18.5 45t45 18.5t45 -18.5t18.5 -45t-18.5 -45t-45 -18.5t-45 18.5t-18.5 45zM614 1595.5q0 26.5 18.5 45t45.5 18.5t45 -18.5t18 -45t-18 -45t-45 -18.5t-45.5 18.5t-18.5 45z" />
<glyph unicode="&#x2c6;" horiz-adv-x="536" d="M16 1227l201 223h90l201 -223h-76l-172 176l-166 -176h-78z" />
<glyph unicode="&#x2dc;" horiz-adv-x="555" d="M39 1348q29 96 139 96q31 0 94.5 -26.5t98.5 -26.5q53 0 82 47l47 -17q-12 -43 -49 -71.5t-78 -28.5q-37 0 -104.5 27.5t-100.5 27.5q-51 0 -80 -53z" />
<glyph unicode="&#x2000;" horiz-adv-x="931" />
<glyph unicode="&#x2001;" horiz-adv-x="1865" />
<glyph unicode="&#x2002;" horiz-adv-x="931" />
<glyph unicode="&#x2003;" horiz-adv-x="1865" />
<glyph unicode="&#x2004;" horiz-adv-x="620" />
<glyph unicode="&#x2005;" horiz-adv-x="464" />
<glyph unicode="&#x2006;" horiz-adv-x="309" />
<glyph unicode="&#x2007;" horiz-adv-x="309" />
<glyph unicode="&#x2008;" horiz-adv-x="231" />
<glyph unicode="&#x2009;" horiz-adv-x="372" />
<glyph unicode="&#x200a;" horiz-adv-x="102" />
<glyph unicode="&#x2010;" horiz-adv-x="735" d="M78 575v78h579v-78h-579z" />
<glyph unicode="&#x2011;" horiz-adv-x="735" d="M78 575v78h579v-78h-579z" />
<glyph unicode="&#x2012;" horiz-adv-x="735" d="M78 575v78h579v-78h-579z" />
<glyph unicode="&#x2013;" horiz-adv-x="1024" d="M59 575v76h910v-76h-910z" />
<glyph unicode="&#x2014;" horiz-adv-x="1884" d="M45 575v76h1794v-76h-1794z" />
<glyph unicode="&#x2018;" horiz-adv-x="448" d="M125 1061q25 76 72 196.5t71 192.5h74l-115 -389h-102z" />
<glyph unicode="&#x2019;" horiz-adv-x="466" d="M123 1059l117 391h106q-25 -76 -74 -198t-73 -193h-76z" />
<glyph unicode="&#x201a;" horiz-adv-x="499" d="M102 -262l117 344h105l-144 -344h-78z" />
<glyph unicode="&#x201c;" horiz-adv-x="704" d="M127 1059l133 391h78l-105 -391h-106zM387 1059l133 391h78l-104 -391h-107z" />
<glyph unicode="&#x201d;" horiz-adv-x="788" d="M174 1061l92 389h103l-121 -389h-74zM428 1061l92 389h103l-121 -389h-74z" />
<glyph unicode="&#x201e;" horiz-adv-x="835" d="M143 -262l115 364h107q-25 -70 -72 -184.5t-72 -179.5h-78zM401 -262l115 364h107q-25 -70 -72 -184.5t-72 -179.5h-78z" />
<glyph unicode="&#x2022;" horiz-adv-x="739" d="M123 725q0 92 66.5 158.5t158.5 66.5t158.5 -66.5t66.5 -158.5t-66.5 -158.5t-158.5 -66.5t-158.5 66.5t-66.5 158.5z" />
<glyph unicode="&#x2026;" horiz-adv-x="1437" d="M160 86q0 51 33.5 85t85 34t85 -34t33.5 -85t-33.5 -85t-85 -34t-85 34t-33.5 85zM180 86q0 41 29 69.5t69.5 28.5t69.5 -28.5t29 -69.5t-29 -69.5t-69.5 -28.5t-69.5 28.5t-29 69.5zM201 86q0 -33 22.5 -55.5t55 -22.5t55 22.5t22.5 55.5t-22.5 55.5t-55 22.5t-55 -22.5 t-22.5 -55.5zM588 86q0 51 33.5 85t85 34t85 -34t33.5 -85t-33.5 -85t-85 -34t-85 34t-33.5 85zM608 86q0 41 29 69.5t70 28.5t69.5 -28.5t28.5 -69.5t-28.5 -69.5t-69.5 -28.5t-70 28.5t-29 69.5zM629 86q0 -33 22.5 -55.5t55 -22.5t55 22.5t22.5 55.5t-22.5 55.5t-55 22.5 t-55 -22.5t-22.5 -55.5zM1014 86q0 51 33.5 85t85 34t85 -34t33.5 -85t-33.5 -85t-85 -34t-85 34t-33.5 85zM1034 86q0 41 29 69.5t70 28.5t69.5 -28.5t28.5 -69.5t-28.5 -69.5t-69.5 -28.5t-70 28.5t-29 69.5zM1055 86q0 -33 22.5 -55.5t55 -22.5t55 22.5t22.5 55.5 t-22.5 55.5t-55 22.5t-55 -22.5t-22.5 -55.5z" />
<glyph unicode="&#x202f;" horiz-adv-x="372" />
<glyph unicode="&#x2039;" horiz-adv-x="530" d="M96 604l262 389q12 -8 34 -21.5t30 -19.5l-240 -348q35 -53 238 -348q-14 -8 -31.5 -20.5t-30.5 -18.5z" />
<glyph unicode="&#x203a;" horiz-adv-x="557" d="M133 256l240 348q-35 53 -238 348q14 8 31.5 20.5t30.5 18.5l262 -387l-262 -389q-12 8 -34 21.5t-30 19.5z" />
<glyph unicode="&#x205f;" horiz-adv-x="464" />
<glyph unicode="&#x20ac;" horiz-adv-x="1179" d="M51 598q10 57 12 66h119v120h-125q6 41 13 66h112v176q0 199 142.5 312.5t337.5 113.5q139 0 256.5 -59.5t179.5 -173.5l-74 -37q-100 188 -362 188q-164 0 -283 -92t-119 -252v-176h551q-6 -41 -12 -66h-539v-120h551q-4 -14 -5 -36t-3 -30h-543v-176q0 -162 117 -252 t278 -90q266 0 369 188l74 -37q-61 -115 -181 -174t-262 -59q-193 0 -333 111.5t-140 312.5v176h-131z" />
<glyph unicode="&#x2122;" horiz-adv-x="1683" d="M45 1391v59h598v-59h-266v-699h-66v699h-266zM782 692v758h92l273 -594q49 111 149.5 328t122.5 266h92v-758h-65l8 694l-274 -598h-66l-272 586q0 -98 2 -339.5t2 -342.5h-64z" />
<glyph unicode="&#xe000;" horiz-adv-x="1060" d="M0 1060h1060v-1060h-1060v1060z" />
<glyph unicode="&#xfb01;" horiz-adv-x="946" d="M147 0v1139q0 152 88.5 234.5t229.5 88.5v-73q-113 -4 -178.5 -70t-65.5 -180v-258h230v-74h-230v-807h-74zM651 1380.5q0 28.5 21.5 50t50.5 21.5t50.5 -21.5t21.5 -50t-21.5 -50t-50.5 -21.5t-50.5 21.5t-21.5 50zM690 -2v1065h74v-1065h-74z" />
<glyph unicode="&#xfb02;" horiz-adv-x="1011" d="M147 0v1139q0 152 88.5 234.5t229.5 88.5v-73q-113 -4 -178.5 -70t-65.5 -180v-258h230v-74h-230v-807h-74zM686 309v1141h74v-1141q0 -242 209 -241v-74q-283 10 -283 315z" />
<glyph unicode="&#xfb03;" horiz-adv-x="1513" d="M1218 1364q0 29 21.5 50.5t50.5 21.5t50.5 -21.5t21.5 -50.5t-21.5 -50.5t-50.5 -21.5t-50.5 21.5t-21.5 50.5zM1257 -2v1065h74v-1065h-74zM687 0v1139q0 152 88 234.5t229 88.5v-73q-113 -4 -178.5 -70t-65.5 -180v-258h230v-74h-230v-807h-73zM150 0v1139 q0 152 88 234.5t229 88.5v-73q-113 -4 -178.5 -70t-65.5 -180v-258h230v-74h-230v-807h-73z" />
<glyph unicode="&#xfb04;" horiz-adv-x="1548" d="M1225 309v1141h73v-1141q0 -242 209 -241v-74q-282 10 -282 315zM687 0v1139q0 152 88 234.5t229 88.5v-73q-113 -4 -178.5 -70t-65.5 -180v-258h230v-74h-230v-807h-73zM150 0v1139q0 152 88 234.5t229 88.5v-73q-113 -4 -178.5 -70t-65.5 -180v-258h230v-74h-230v-807 h-73z" />
</font>
</defs>
</svg>
